<?xml version="1.0" encoding="utf-8" standalone="no"?>
<!DOCTYPE svg PUBLIC "-//W3C//DTD SVG 1.1//EN"
  "http://www.w3.org/Graphics/SVG/1.1/DTD/svg11.dtd">
<svg xmlns:xlink="http://www.w3.org/1999/xlink" width="576pt" height="432pt" viewBox="0 0 576 432" xmlns="http://www.w3.org/2000/svg" version="1.1">
 <metadata>
  <rdf:RDF xmlns:dc="http://purl.org/dc/elements/1.1/" xmlns:cc="http://creativecommons.org/ns#" xmlns:rdf="http://www.w3.org/1999/02/22-rdf-syntax-ns#">
   <cc:Work>
    <dc:type rdf:resource="http://purl.org/dc/dcmitype/StillImage"/>
    <dc:date>2025-06-15T02:23:56.812515</dc:date>
    <dc:format>image/svg+xml</dc:format>
    <dc:creator>
     <cc:Agent>
      <dc:title>Matplotlib v3.10.1, https://matplotlib.org/</dc:title>
     </cc:Agent>
    </dc:creator>
   </cc:Work>
  </rdf:RDF>
 </metadata>
 <defs>
  <style type="text/css">*{stroke-linejoin: round; stroke-linecap: butt}</style>
 </defs>
 <g id="figure_1">
  <g id="patch_1">
   <path d="M 0 432 
L 576 432 
L 576 0 
L 0 0 
z
" style="fill: #ffffff"/>
  </g>
  <g id="axes_1">
   <g id="patch_2">
    <path d="M 48.408905 389.94 
L 558.18 389.94 
L 558.18 10.8 
L 48.408905 10.8 
z
" style="fill: #ffffff"/>
   </g>
   <g id="matplotlib.axis_1">
    <g id="xtick_1">
     <g id="line2d_1">
      <defs>
       <path id="mae3177b5e0" d="M 0 0 
L 0 -6 
" style="stroke: #000000; stroke-width: 0.8"/>
      </defs>
      <g>
       <use xlink:href="#mae3177b5e0" x="48.408905" y="389.94" style="stroke: #000000; stroke-width: 0.8"/>
      </g>
     </g>
     <g id="line2d_2">
      <defs>
       <path id="m97e38577d8" d="M 0 0 
L 0 6 
" style="stroke: #000000; stroke-width: 0.8"/>
      </defs>
      <g>
       <use xlink:href="#m97e38577d8" x="48.408905" y="10.8" style="stroke: #000000; stroke-width: 0.8"/>
      </g>
     </g>
     <g id="text_1">
      <!-- 0.0 -->
      <g transform="translate(41.458905 400.730625) scale(0.1 -0.1)">
       <defs>
        <path id="NimbusSans-Regular-30" d="M 1756 4628 
Q 2191 4628 2528 4388 
Q 3244 3878 3244 2203 
Q 3244 975 2800 359 
Q 2628 122 2353 -12 
Q 2078 -147 1759 -147 
Q 1328 -147 991 94 
Q 275 600 275 2241 
Q 275 3516 719 4122 
Q 909 4381 1213 4516 
Q 1469 4628 1756 4628 
z
M 1759 4128 
Q 850 4128 850 2238 
Q 850 322 1747 322 
Q 2213 322 2425 756 
Q 2669 1263 2669 2256 
Q 2669 4128 1759 4128 
z
" transform="scale(0.015625)"/>
        <path id="NimbusSans-Regular-2e" d="M 1222 666 
L 1222 0 
L 556 0 
L 556 666 
L 1222 666 
z
" transform="scale(0.015625)"/>
       </defs>
       <use xlink:href="#NimbusSans-Regular-30"/>
       <use xlink:href="#NimbusSans-Regular-2e" transform="translate(55.615234 0)"/>
       <use xlink:href="#NimbusSans-Regular-30" transform="translate(83.398438 0)"/>
      </g>
     </g>
    </g>
    <g id="xtick_2">
     <g id="line2d_3">
      <g>
       <use xlink:href="#mae3177b5e0" x="150.363124" y="389.94" style="stroke: #000000; stroke-width: 0.8"/>
      </g>
     </g>
     <g id="line2d_4">
      <g>
       <use xlink:href="#m97e38577d8" x="150.363124" y="10.8" style="stroke: #000000; stroke-width: 0.8"/>
      </g>
     </g>
     <g id="text_2">
      <!-- 0.2 -->
      <g transform="translate(143.413124 400.730625) scale(0.1 -0.1)">
       <defs>
        <path id="NimbusSans-Regular-32" d="M 3241 559 
L 3241 3 
L 219 3 
Q 263 719 466 1088 
Q 609 1341 843 1550 
Q 1078 1759 1491 1997 
L 2084 2341 
Q 2697 2697 2697 3263 
Q 2697 3650 2425 3900 
Q 2169 4134 1800 4134 
Q 1544 4134 1336 4014 
Q 1128 3894 1019 3681 
Q 909 3466 884 3025 
L 322 3025 
Q 341 3684 563 4025 
Q 950 4628 1819 4628 
Q 2453 4628 2847 4266 
Q 3272 3875 3272 3275 
Q 3272 2413 2316 1881 
L 1675 1525 
Q 1284 1309 1092 1081 
Q 900 853 856 559 
L 3241 559 
z
" transform="scale(0.015625)"/>
       </defs>
       <use xlink:href="#NimbusSans-Regular-30"/>
       <use xlink:href="#NimbusSans-Regular-2e" transform="translate(55.615234 0)"/>
       <use xlink:href="#NimbusSans-Regular-32" transform="translate(83.398438 0)"/>
      </g>
     </g>
    </g>
    <g id="xtick_3">
     <g id="line2d_5">
      <g>
       <use xlink:href="#mae3177b5e0" x="252.317343" y="389.94" style="stroke: #000000; stroke-width: 0.8"/>
      </g>
     </g>
     <g id="line2d_6">
      <g>
       <use xlink:href="#m97e38577d8" x="252.317343" y="10.8" style="stroke: #000000; stroke-width: 0.8"/>
      </g>
     </g>
     <g id="text_3">
      <!-- 0.4 -->
      <g transform="translate(245.367343 400.730625) scale(0.1 -0.1)">
       <defs>
        <path id="NimbusSans-Regular-34" d="M 2094 1119 
L 178 1119 
L 178 1716 
L 2238 4628 
L 2656 4628 
L 2656 1625 
L 3328 1625 
L 3328 1119 
L 2656 1119 
L 2656 0 
L 2094 0 
L 2094 1119 
z
M 2094 1625 
L 2094 3666 
L 672 1625 
L 2094 1625 
z
" transform="scale(0.015625)"/>
       </defs>
       <use xlink:href="#NimbusSans-Regular-30"/>
       <use xlink:href="#NimbusSans-Regular-2e" transform="translate(55.615234 0)"/>
       <use xlink:href="#NimbusSans-Regular-34" transform="translate(83.398438 0)"/>
      </g>
     </g>
    </g>
    <g id="xtick_4">
     <g id="line2d_7">
      <g>
       <use xlink:href="#mae3177b5e0" x="354.271562" y="389.94" style="stroke: #000000; stroke-width: 0.8"/>
      </g>
     </g>
     <g id="line2d_8">
      <g>
       <use xlink:href="#m97e38577d8" x="354.271562" y="10.8" style="stroke: #000000; stroke-width: 0.8"/>
      </g>
     </g>
     <g id="text_4">
      <!-- 0.6 -->
      <g transform="translate(347.321562 400.730625) scale(0.1 -0.1)">
       <defs>
        <path id="NimbusSans-Regular-36" d="M 3191 3425 
L 2625 3425 
Q 2569 3716 2419 3884 
Q 2200 4128 1863 4128 
Q 1375 4128 1114 3668 
Q 853 3209 850 2350 
Q 1219 2859 1894 2859 
Q 2478 2859 2853 2494 
Q 3034 2316 3147 2066 
Q 3284 1753 3284 1403 
Q 3284 778 2913 341 
Q 2497 -147 1800 -147 
Q 1038 -147 656 428 
Q 416 794 344 1231 
Q 275 1641 275 2109 
Q 275 2741 373 3184 
Q 472 3628 684 3966 
Q 888 4281 1219 4459 
Q 1528 4628 1900 4628 
Q 2419 4628 2761 4309 
Q 3103 3991 3191 3425 
z
M 1822 2359 
Q 1388 2359 1119 2066 
Q 881 1800 881 1388 
Q 881 953 1128 666 
Q 1400 353 1806 353 
Q 2009 353 2195 443 
Q 2381 534 2500 694 
Q 2706 963 2706 1356 
Q 2706 1759 2516 2031 
Q 2284 2359 1822 2359 
z
" transform="scale(0.015625)"/>
       </defs>
       <use xlink:href="#NimbusSans-Regular-30"/>
       <use xlink:href="#NimbusSans-Regular-2e" transform="translate(55.615234 0)"/>
       <use xlink:href="#NimbusSans-Regular-36" transform="translate(83.398438 0)"/>
      </g>
     </g>
    </g>
    <g id="xtick_5">
     <g id="line2d_9">
      <g>
       <use xlink:href="#mae3177b5e0" x="456.225781" y="389.94" style="stroke: #000000; stroke-width: 0.8"/>
      </g>
     </g>
     <g id="line2d_10">
      <g>
       <use xlink:href="#m97e38577d8" x="456.225781" y="10.8" style="stroke: #000000; stroke-width: 0.8"/>
      </g>
     </g>
     <g id="text_5">
      <!-- 0.8 -->
      <g transform="translate(449.275781 400.730625) scale(0.1 -0.1)">
       <defs>
        <path id="NimbusSans-Regular-38" d="M 2506 2434 
Q 3284 2050 3284 1284 
Q 3284 694 2909 300 
Q 2488 -147 1759 -147 
Q 1034 -147 613 300 
Q 238 694 238 1284 
Q 238 2050 1016 2434 
Q 722 2619 606 2756 
Q 397 3006 397 3397 
Q 397 3938 784 4291 
Q 1153 4628 1763 4628 
Q 2369 4628 2738 4291 
Q 3125 3938 3125 3394 
Q 3125 3066 2992 2859 
Q 2859 2653 2506 2434 
z
M 1759 4128 
Q 1397 4128 1184 3928 
Q 972 3725 972 3394 
Q 972 3063 1184 2859 
Q 1397 2659 1763 2659 
Q 2125 2659 2338 2859 
Q 2550 3063 2550 3381 
Q 2550 3728 2338 3928 
Q 2122 4128 1759 4128 
z
M 1763 2184 
Q 1350 2184 1088 1941 
Q 813 1688 813 1269 
Q 813 850 1088 597 
Q 1347 353 1747 353 
Q 2175 353 2438 597 
Q 2709 850 2709 1272 
Q 2709 1694 2438 1941 
Q 2169 2184 1763 2184 
z
" transform="scale(0.015625)"/>
       </defs>
       <use xlink:href="#NimbusSans-Regular-30"/>
       <use xlink:href="#NimbusSans-Regular-2e" transform="translate(55.615234 0)"/>
       <use xlink:href="#NimbusSans-Regular-38" transform="translate(83.398438 0)"/>
      </g>
     </g>
    </g>
    <g id="xtick_6">
     <g id="line2d_11">
      <g>
       <use xlink:href="#mae3177b5e0" x="558.18" y="389.94" style="stroke: #000000; stroke-width: 0.8"/>
      </g>
     </g>
     <g id="line2d_12">
      <g>
       <use xlink:href="#m97e38577d8" x="558.18" y="10.8" style="stroke: #000000; stroke-width: 0.8"/>
      </g>
     </g>
     <g id="text_6">
      <!-- 1.0 -->
      <g transform="translate(551.23 400.730625) scale(0.1 -0.1)">
       <defs>
        <path id="NimbusSans-Regular-31" d="M 1659 3297 
L 653 3297 
L 653 3706 
Q 1078 3769 1242 3816 
Q 1406 3863 1519 3956 
Q 1706 4113 1850 4628 
L 2222 4628 
L 2222 0 
L 1659 0 
L 1659 3297 
z
" transform="scale(0.015625)"/>
       </defs>
       <use xlink:href="#NimbusSans-Regular-31"/>
       <use xlink:href="#NimbusSans-Regular-2e" transform="translate(55.615234 0)"/>
       <use xlink:href="#NimbusSans-Regular-30" transform="translate(83.398438 0)"/>
      </g>
     </g>
    </g>
    <g id="xtick_7">
     <g id="line2d_13">
      <defs>
       <path id="m8629fd0b8c" d="M 0 0 
L 0 -3 
" style="stroke: #000000; stroke-width: 0.6"/>
      </defs>
      <g>
       <use xlink:href="#m8629fd0b8c" x="73.89746" y="389.94" style="stroke: #000000; stroke-width: 0.6"/>
      </g>
     </g>
     <g id="line2d_14">
      <defs>
       <path id="m4d4be51cd9" d="M 0 0 
L 0 3 
" style="stroke: #000000; stroke-width: 0.6"/>
      </defs>
      <g>
       <use xlink:href="#m4d4be51cd9" x="73.89746" y="10.8" style="stroke: #000000; stroke-width: 0.6"/>
      </g>
     </g>
    </g>
    <g id="xtick_8">
     <g id="line2d_15">
      <g>
       <use xlink:href="#m8629fd0b8c" x="99.386015" y="389.94" style="stroke: #000000; stroke-width: 0.6"/>
      </g>
     </g>
     <g id="line2d_16">
      <g>
       <use xlink:href="#m4d4be51cd9" x="99.386015" y="10.8" style="stroke: #000000; stroke-width: 0.6"/>
      </g>
     </g>
    </g>
    <g id="xtick_9">
     <g id="line2d_17">
      <g>
       <use xlink:href="#m8629fd0b8c" x="124.874569" y="389.94" style="stroke: #000000; stroke-width: 0.6"/>
      </g>
     </g>
     <g id="line2d_18">
      <g>
       <use xlink:href="#m4d4be51cd9" x="124.874569" y="10.8" style="stroke: #000000; stroke-width: 0.6"/>
      </g>
     </g>
    </g>
    <g id="xtick_10">
     <g id="line2d_19">
      <g>
       <use xlink:href="#m8629fd0b8c" x="175.851679" y="389.94" style="stroke: #000000; stroke-width: 0.6"/>
      </g>
     </g>
     <g id="line2d_20">
      <g>
       <use xlink:href="#m4d4be51cd9" x="175.851679" y="10.8" style="stroke: #000000; stroke-width: 0.6"/>
      </g>
     </g>
    </g>
    <g id="xtick_11">
     <g id="line2d_21">
      <g>
       <use xlink:href="#m8629fd0b8c" x="201.340234" y="389.94" style="stroke: #000000; stroke-width: 0.6"/>
      </g>
     </g>
     <g id="line2d_22">
      <g>
       <use xlink:href="#m4d4be51cd9" x="201.340234" y="10.8" style="stroke: #000000; stroke-width: 0.6"/>
      </g>
     </g>
    </g>
    <g id="xtick_12">
     <g id="line2d_23">
      <g>
       <use xlink:href="#m8629fd0b8c" x="226.828788" y="389.94" style="stroke: #000000; stroke-width: 0.6"/>
      </g>
     </g>
     <g id="line2d_24">
      <g>
       <use xlink:href="#m4d4be51cd9" x="226.828788" y="10.8" style="stroke: #000000; stroke-width: 0.6"/>
      </g>
     </g>
    </g>
    <g id="xtick_13">
     <g id="line2d_25">
      <g>
       <use xlink:href="#m8629fd0b8c" x="277.805898" y="389.94" style="stroke: #000000; stroke-width: 0.6"/>
      </g>
     </g>
     <g id="line2d_26">
      <g>
       <use xlink:href="#m4d4be51cd9" x="277.805898" y="10.8" style="stroke: #000000; stroke-width: 0.6"/>
      </g>
     </g>
    </g>
    <g id="xtick_14">
     <g id="line2d_27">
      <g>
       <use xlink:href="#m8629fd0b8c" x="303.294453" y="389.94" style="stroke: #000000; stroke-width: 0.6"/>
      </g>
     </g>
     <g id="line2d_28">
      <g>
       <use xlink:href="#m4d4be51cd9" x="303.294453" y="10.8" style="stroke: #000000; stroke-width: 0.6"/>
      </g>
     </g>
    </g>
    <g id="xtick_15">
     <g id="line2d_29">
      <g>
       <use xlink:href="#m8629fd0b8c" x="328.783007" y="389.94" style="stroke: #000000; stroke-width: 0.6"/>
      </g>
     </g>
     <g id="line2d_30">
      <g>
       <use xlink:href="#m4d4be51cd9" x="328.783007" y="10.8" style="stroke: #000000; stroke-width: 0.6"/>
      </g>
     </g>
    </g>
    <g id="xtick_16">
     <g id="line2d_31">
      <g>
       <use xlink:href="#m8629fd0b8c" x="379.760117" y="389.94" style="stroke: #000000; stroke-width: 0.6"/>
      </g>
     </g>
     <g id="line2d_32">
      <g>
       <use xlink:href="#m4d4be51cd9" x="379.760117" y="10.8" style="stroke: #000000; stroke-width: 0.6"/>
      </g>
     </g>
    </g>
    <g id="xtick_17">
     <g id="line2d_33">
      <g>
       <use xlink:href="#m8629fd0b8c" x="405.248672" y="389.94" style="stroke: #000000; stroke-width: 0.6"/>
      </g>
     </g>
     <g id="line2d_34">
      <g>
       <use xlink:href="#m4d4be51cd9" x="405.248672" y="10.8" style="stroke: #000000; stroke-width: 0.6"/>
      </g>
     </g>
    </g>
    <g id="xtick_18">
     <g id="line2d_35">
      <g>
       <use xlink:href="#m8629fd0b8c" x="430.737226" y="389.94" style="stroke: #000000; stroke-width: 0.6"/>
      </g>
     </g>
     <g id="line2d_36">
      <g>
       <use xlink:href="#m4d4be51cd9" x="430.737226" y="10.8" style="stroke: #000000; stroke-width: 0.6"/>
      </g>
     </g>
    </g>
    <g id="xtick_19">
     <g id="line2d_37">
      <g>
       <use xlink:href="#m8629fd0b8c" x="481.714336" y="389.94" style="stroke: #000000; stroke-width: 0.6"/>
      </g>
     </g>
     <g id="line2d_38">
      <g>
       <use xlink:href="#m4d4be51cd9" x="481.714336" y="10.8" style="stroke: #000000; stroke-width: 0.6"/>
      </g>
     </g>
    </g>
    <g id="xtick_20">
     <g id="line2d_39">
      <g>
       <use xlink:href="#m8629fd0b8c" x="507.202891" y="389.94" style="stroke: #000000; stroke-width: 0.6"/>
      </g>
     </g>
     <g id="line2d_40">
      <g>
       <use xlink:href="#m4d4be51cd9" x="507.202891" y="10.8" style="stroke: #000000; stroke-width: 0.6"/>
      </g>
     </g>
    </g>
    <g id="xtick_21">
     <g id="line2d_41">
      <g>
       <use xlink:href="#m8629fd0b8c" x="532.691445" y="389.94" style="stroke: #000000; stroke-width: 0.6"/>
      </g>
     </g>
     <g id="line2d_42">
      <g>
       <use xlink:href="#m4d4be51cd9" x="532.691445" y="10.8" style="stroke: #000000; stroke-width: 0.6"/>
      </g>
     </g>
    </g>
    <g id="text_7">
     <!-- Edge Score -->
     <g transform="translate(459.86957 417.28625) scale(0.14 -0.14)">
      <defs>
       <path id="NimbusSans-Regular-45" d="M 1169 2125 
L 1169 525 
L 3922 525 
L 3922 0 
L 575 0 
L 575 4666 
L 3806 4666 
L 3806 4141 
L 1169 4141 
L 1169 2650 
L 3713 2650 
L 3713 2125 
L 1169 2125 
z
" transform="scale(0.015625)"/>
       <path id="NimbusSans-Regular-64" d="M 3169 4666 
L 3169 0 
L 2694 0 
L 2694 441 
Q 2291 -147 1625 -147 
Q 1191 -147 844 78 
Q 447 334 278 884 
Q 166 1244 166 1688 
Q 166 2538 603 3022 
Q 994 3450 1606 3450 
Q 2291 3450 2638 2934 
L 2638 4666 
L 3169 4666 
z
M 1697 2950 
Q 1388 2950 1144 2753 
Q 722 2416 722 1653 
Q 722 1103 963 744 
Q 1228 353 1700 353 
Q 2166 353 2409 744 
Q 2638 1109 2638 1634 
Q 2638 2203 2409 2559 
Q 2159 2950 1697 2950 
z
" transform="scale(0.015625)"/>
       <path id="NimbusSans-Regular-67" d="M 2588 3353 
L 3081 3353 
L 3081 547 
Q 3081 -156 2966 -516 
Q 2688 -1394 1609 -1394 
Q 919 -1394 556 -956 
Q 363 -722 331 -384 
L 878 -384 
Q 913 -644 1050 -766 
Q 1253 -947 1619 -947 
Q 2122 -947 2330 -669 
Q 2538 -391 2538 284 
L 2538 456 
Q 2378 216 2238 100 
Q 1944 -150 1563 -150 
Q 1031 -150 647 303 
Q 225 797 225 1616 
Q 225 2494 678 3016 
Q 1053 3450 1603 3450 
Q 1919 3450 2153 3311 
Q 2388 3172 2588 2866 
L 2588 3353 
z
M 1650 2956 
Q 1197 2956 981 2566 
Q 781 2203 781 1650 
Q 781 1100 981 738 
Q 1197 347 1650 347 
Q 2122 347 2341 738 
Q 2538 1091 2538 1634 
Q 2538 2219 2341 2566 
Q 2116 2956 1650 2956 
z
" transform="scale(0.015625)"/>
       <path id="NimbusSans-Regular-65" d="M 3284 1497 
L 813 1497 
Q 819 1044 991 781 
Q 1275 347 1797 347 
Q 2450 347 2678 1019 
L 3216 1019 
Q 3141 616 2900 325 
Q 2506 -147 1781 -147 
Q 1069 -147 653 341 
Q 256 809 256 1628 
Q 256 2491 694 2978 
Q 1119 3450 1791 3450 
Q 2341 3450 2741 3131 
Q 3044 2888 3164 2523 
Q 3284 2159 3284 1497 
z
M 2709 1931 
Q 2709 2178 2631 2372 
Q 2516 2650 2295 2803 
Q 2075 2956 1784 2956 
Q 1259 2956 994 2503 
Q 850 2259 828 1931 
L 2709 1931 
z
" transform="scale(0.015625)"/>
       <path id="NimbusSans-Regular-20" transform="scale(0.015625)"/>
       <path id="NimbusSans-Regular-53" d="M 3816 3297 
L 3253 3297 
Q 3244 3700 3016 3931 
Q 2706 4244 2084 4244 
Q 1609 4244 1331 4031 
Q 1041 3809 1041 3456 
Q 1041 3188 1214 3033 
Q 1388 2878 1813 2766 
L 2978 2450 
Q 3459 2322 3709 2028 
Q 3975 1716 3975 1281 
Q 3975 872 3731 509 
Q 3294 -147 2153 -147 
Q 1066 -147 578 519 
Q 319 878 306 1484 
L 869 1484 
Q 866 1063 1113 772 
Q 1444 378 2188 378 
Q 2763 378 3047 575 
Q 3197 681 3287 857 
Q 3378 1034 3378 1222 
Q 3378 1497 3172 1680 
Q 2966 1863 2522 1978 
L 1359 2281 
Q 447 2522 447 3375 
Q 447 3988 872 4359 
Q 1306 4744 2103 4744 
Q 3122 4744 3563 4141 
Q 3816 3794 3816 3381 
Q 3816 3353 3816 3297 
z
" transform="scale(0.015625)"/>
       <path id="NimbusSans-Regular-63" d="M 3013 2228 
L 2475 2228 
Q 2438 2525 2281 2709 
Q 2069 2956 1684 2956 
Q 1269 2956 1034 2650 
Q 753 2288 753 1619 
Q 753 1013 1016 669 
Q 1263 347 1694 347 
Q 2378 347 2513 1153 
L 3050 1153 
Q 3016 694 2803 384 
Q 2441 -147 1681 -147 
Q 1053 -147 672 253 
Q 197 744 197 1619 
Q 197 2463 616 2969 
Q 1016 3450 1691 3450 
Q 2106 3450 2431 3266 
Q 2822 3044 2950 2606 
Q 2994 2453 3013 2228 
z
" transform="scale(0.015625)"/>
       <path id="NimbusSans-Regular-6f" d="M 1744 3450 
Q 2481 3450 2888 2947 
Q 3266 2475 3266 1628 
Q 3266 834 2888 356 
Q 2484 -147 1747 -147 
Q 1013 -147 613 356 
Q 231 834 231 1653 
Q 231 2472 613 2947 
Q 1016 3450 1744 3450 
z
M 1747 2956 
Q 1406 2956 1153 2728 
Q 788 2400 788 1653 
Q 788 1119 988 778 
Q 1103 578 1306 462 
Q 1509 347 1750 347 
Q 1988 347 2191 462 
Q 2394 578 2509 778 
Q 2709 1119 2709 1634 
Q 2709 2191 2509 2525 
Q 2397 2719 2203 2834 
Q 1997 2956 1747 2956 
z
" transform="scale(0.015625)"/>
       <path id="NimbusSans-Regular-72" d="M 441 3353 
L 934 3353 
L 934 2744 
Q 1359 3450 1847 3450 
Q 1938 3450 2053 3431 
L 2053 2888 
Q 1578 2884 1356 2722 
Q 978 2444 978 1741 
L 978 0 
L 441 0 
L 441 3353 
z
" transform="scale(0.015625)"/>
      </defs>
      <use xlink:href="#NimbusSans-Regular-45"/>
      <use xlink:href="#NimbusSans-Regular-64" transform="translate(64.699219 0)"/>
      <use xlink:href="#NimbusSans-Regular-67" transform="translate(120.689453 0)"/>
      <use xlink:href="#NimbusSans-Regular-65" transform="translate(175.804688 0)"/>
      <use xlink:href="#NimbusSans-Regular-20" transform="translate(231.419922 0)"/>
      <use xlink:href="#NimbusSans-Regular-53" transform="translate(259.203125 0)"/>
      <use xlink:href="#NimbusSans-Regular-63" transform="translate(325.902344 0)"/>
      <use xlink:href="#NimbusSans-Regular-6f" transform="translate(376.652344 0)"/>
      <use xlink:href="#NimbusSans-Regular-72" transform="translate(432.267578 0)"/>
      <use xlink:href="#NimbusSans-Regular-65" transform="translate(464.568359 0)"/>
     </g>
    </g>
   </g>
   <g id="matplotlib.axis_2">
    <g id="ytick_1">
     <g id="line2d_43">
      <defs>
       <path id="mf469f7b216" d="M 0 0 
L 6 0 
" style="stroke: #000000; stroke-width: 0.8"/>
      </defs>
      <g>
       <use xlink:href="#mf469f7b216" x="48.408905" y="386.871493" style="stroke: #000000; stroke-width: 0.8"/>
      </g>
     </g>
     <g id="line2d_44">
      <defs>
       <path id="m25ed8f5af8" d="M 0 0 
L -6 0 
" style="stroke: #000000; stroke-width: 0.8"/>
      </defs>
      <g>
       <use xlink:href="#m25ed8f5af8" x="558.18" y="386.871493" style="stroke: #000000; stroke-width: 0.8"/>
      </g>
     </g>
     <g id="text_8">
      <!-- $\mathdefault{10^{1}}$ -->
      <g transform="translate(29.208905 392.032431) scale(0.1 -0.1)">
       <use xlink:href="#NimbusSans-Regular-31" transform="translate(0 0.965625)"/>
       <use xlink:href="#NimbusSans-Regular-30" transform="translate(55.615234 0.965625)"/>
       <use xlink:href="#NimbusSans-Regular-31" transform="translate(112.990859 71.38125) scale(0.7)"/>
      </g>
     </g>
    </g>
    <g id="ytick_2">
     <g id="line2d_45">
      <g>
       <use xlink:href="#mf469f7b216" x="48.408905" y="326.755039" style="stroke: #000000; stroke-width: 0.8"/>
      </g>
     </g>
     <g id="line2d_46">
      <g>
       <use xlink:href="#m25ed8f5af8" x="558.18" y="326.755039" style="stroke: #000000; stroke-width: 0.8"/>
      </g>
     </g>
     <g id="text_9">
      <!-- $\mathdefault{10^{2}}$ -->
      <g transform="translate(29.208905 331.915976) scale(0.1 -0.1)">
       <use xlink:href="#NimbusSans-Regular-31" transform="translate(0 0.965625)"/>
       <use xlink:href="#NimbusSans-Regular-30" transform="translate(55.615234 0.965625)"/>
       <use xlink:href="#NimbusSans-Regular-32" transform="translate(112.990859 71.38125) scale(0.7)"/>
      </g>
     </g>
    </g>
    <g id="ytick_3">
     <g id="line2d_47">
      <g>
       <use xlink:href="#mf469f7b216" x="48.408905" y="266.638584" style="stroke: #000000; stroke-width: 0.8"/>
      </g>
     </g>
     <g id="line2d_48">
      <g>
       <use xlink:href="#m25ed8f5af8" x="558.18" y="266.638584" style="stroke: #000000; stroke-width: 0.8"/>
      </g>
     </g>
     <g id="text_10">
      <!-- $\mathdefault{10^{3}}$ -->
      <g transform="translate(29.208905 271.799521) scale(0.1 -0.1)">
       <defs>
        <path id="NimbusSans-Regular-33" d="M 1416 2128 
L 1416 2609 
Q 1953 2613 2166 2703 
Q 2531 2859 2531 3338 
Q 2531 3741 2294 3947 
Q 2075 4138 1728 4138 
Q 1466 4138 1264 4028 
Q 1063 3919 966 3722 
Q 872 3525 866 3138 
L 303 3138 
Q 316 3731 538 4072 
Q 719 4356 1044 4497 
Q 1347 4628 1725 4628 
Q 2356 4628 2734 4297 
Q 3106 3972 3106 3353 
Q 3106 2953 2875 2678 
Q 2719 2497 2472 2397 
Q 2797 2281 2963 2109 
Q 3241 1822 3241 1291 
Q 3241 625 2803 228 
Q 2388 -150 1706 -150 
Q 994 -150 628 215 
Q 263 581 206 1344 
L 772 1344 
Q 794 934 938 713 
Q 1066 522 1255 434 
Q 1444 347 1728 347 
Q 2188 347 2431 613 
Q 2666 869 2666 1284 
Q 2666 1700 2427 1915 
Q 2188 2131 1725 2131 
L 1416 2128 
z
" transform="scale(0.015625)"/>
       </defs>
       <use xlink:href="#NimbusSans-Regular-31" transform="translate(0 0.965625)"/>
       <use xlink:href="#NimbusSans-Regular-30" transform="translate(55.615234 0.965625)"/>
       <use xlink:href="#NimbusSans-Regular-33" transform="translate(112.990859 71.38125) scale(0.7)"/>
      </g>
     </g>
    </g>
    <g id="ytick_4">
     <g id="line2d_49">
      <g>
       <use xlink:href="#mf469f7b216" x="48.408905" y="206.522129" style="stroke: #000000; stroke-width: 0.8"/>
      </g>
     </g>
     <g id="line2d_50">
      <g>
       <use xlink:href="#m25ed8f5af8" x="558.18" y="206.522129" style="stroke: #000000; stroke-width: 0.8"/>
      </g>
     </g>
     <g id="text_11">
      <!-- $\mathdefault{10^{4}}$ -->
      <g transform="translate(29.208905 211.683067) scale(0.1 -0.1)">
       <use xlink:href="#NimbusSans-Regular-31" transform="translate(0 0.965625)"/>
       <use xlink:href="#NimbusSans-Regular-30" transform="translate(55.615234 0.965625)"/>
       <use xlink:href="#NimbusSans-Regular-34" transform="translate(112.990859 71.38125) scale(0.7)"/>
      </g>
     </g>
    </g>
    <g id="ytick_5">
     <g id="line2d_51">
      <g>
       <use xlink:href="#mf469f7b216" x="48.408905" y="146.405675" style="stroke: #000000; stroke-width: 0.8"/>
      </g>
     </g>
     <g id="line2d_52">
      <g>
       <use xlink:href="#m25ed8f5af8" x="558.18" y="146.405675" style="stroke: #000000; stroke-width: 0.8"/>
      </g>
     </g>
     <g id="text_12">
      <!-- $\mathdefault{10^{5}}$ -->
      <g transform="translate(29.208905 151.516612) scale(0.1 -0.1)">
       <defs>
        <path id="NimbusSans-Regular-35" d="M 3047 4538 
L 3047 3981 
L 1156 3981 
L 981 2716 
Q 1359 2991 1819 2991 
Q 2450 2991 2859 2588 
Q 3284 2172 3284 1478 
Q 3284 816 2903 366 
Q 2469 -147 1728 -147 
Q 1278 -147 922 44 
Q 616 206 464 439 
Q 313 672 225 1113 
L 791 1113 
Q 984 353 1716 353 
Q 2209 353 2475 669 
Q 2709 947 2709 1403 
Q 2709 1916 2431 2213 
Q 2172 2491 1719 2491 
Q 1453 2491 1267 2397 
Q 1081 2303 881 2069 
L 369 2069 
L 706 4538 
L 3047 4538 
z
" transform="scale(0.015625)"/>
       </defs>
       <use xlink:href="#NimbusSans-Regular-31" transform="translate(0 0.95)"/>
       <use xlink:href="#NimbusSans-Regular-30" transform="translate(55.615234 0.95)"/>
       <use xlink:href="#NimbusSans-Regular-35" transform="translate(112.990859 71.365625) scale(0.7)"/>
      </g>
     </g>
    </g>
    <g id="ytick_6">
     <g id="line2d_53">
      <g>
       <use xlink:href="#mf469f7b216" x="48.408905" y="86.28922" style="stroke: #000000; stroke-width: 0.8"/>
      </g>
     </g>
     <g id="line2d_54">
      <g>
       <use xlink:href="#m25ed8f5af8" x="558.18" y="86.28922" style="stroke: #000000; stroke-width: 0.8"/>
      </g>
     </g>
     <g id="text_13">
      <!-- $\mathdefault{10^{6}}$ -->
      <g transform="translate(29.208905 91.450157) scale(0.1 -0.1)">
       <use xlink:href="#NimbusSans-Regular-31" transform="translate(0 0.965625)"/>
       <use xlink:href="#NimbusSans-Regular-30" transform="translate(55.615234 0.965625)"/>
       <use xlink:href="#NimbusSans-Regular-36" transform="translate(112.990859 71.38125) scale(0.7)"/>
      </g>
     </g>
    </g>
    <g id="ytick_7">
     <g id="line2d_55">
      <g>
       <use xlink:href="#mf469f7b216" x="48.408905" y="26.172765" style="stroke: #000000; stroke-width: 0.8"/>
      </g>
     </g>
     <g id="line2d_56">
      <g>
       <use xlink:href="#m25ed8f5af8" x="558.18" y="26.172765" style="stroke: #000000; stroke-width: 0.8"/>
      </g>
     </g>
     <g id="text_14">
      <!-- $\mathdefault{10^{7}}$ -->
      <g transform="translate(29.208905 31.283703) scale(0.1 -0.1)">
       <defs>
        <path id="NimbusSans-Regular-37" d="M 3328 4538 
L 3328 4066 
Q 2859 3416 2645 3070 
Q 2431 2725 2206 2256 
Q 1697 1191 1484 0 
L 884 0 
Q 1053 697 1168 1055 
Q 1284 1413 1481 1847 
Q 1709 2350 1976 2801 
Q 2244 3253 2744 3981 
L 294 3981 
L 294 4538 
L 3328 4538 
z
" transform="scale(0.015625)"/>
       </defs>
       <use xlink:href="#NimbusSans-Regular-31" transform="translate(0 0.95)"/>
       <use xlink:href="#NimbusSans-Regular-30" transform="translate(55.615234 0.95)"/>
       <use xlink:href="#NimbusSans-Regular-37" transform="translate(112.990859 71.365625) scale(0.7)"/>
      </g>
     </g>
    </g>
    <g id="ytick_8">
     <g id="line2d_57">
      <defs>
       <path id="me848aa49d2" d="M 0 0 
L 3 0 
" style="stroke: #000000; stroke-width: 0.6"/>
      </defs>
      <g>
       <use xlink:href="#me848aa49d2" x="48.408905" y="389.622271" style="stroke: #000000; stroke-width: 0.6"/>
      </g>
     </g>
     <g id="line2d_58">
      <defs>
       <path id="m0ad623d12a" d="M 0 0 
L -3 0 
" style="stroke: #000000; stroke-width: 0.6"/>
      </defs>
      <g>
       <use xlink:href="#m0ad623d12a" x="558.18" y="389.622271" style="stroke: #000000; stroke-width: 0.6"/>
      </g>
     </g>
    </g>
    <g id="ytick_9">
     <g id="line2d_59">
      <g>
       <use xlink:href="#me848aa49d2" x="48.408905" y="368.774637" style="stroke: #000000; stroke-width: 0.6"/>
      </g>
     </g>
     <g id="line2d_60">
      <g>
       <use xlink:href="#m0ad623d12a" x="558.18" y="368.774637" style="stroke: #000000; stroke-width: 0.6"/>
      </g>
     </g>
    </g>
    <g id="ytick_10">
     <g id="line2d_61">
      <g>
       <use xlink:href="#me848aa49d2" x="48.408905" y="358.188655" style="stroke: #000000; stroke-width: 0.6"/>
      </g>
     </g>
     <g id="line2d_62">
      <g>
       <use xlink:href="#m0ad623d12a" x="558.18" y="358.188655" style="stroke: #000000; stroke-width: 0.6"/>
      </g>
     </g>
    </g>
    <g id="ytick_11">
     <g id="line2d_63">
      <g>
       <use xlink:href="#me848aa49d2" x="48.408905" y="350.677781" style="stroke: #000000; stroke-width: 0.6"/>
      </g>
     </g>
     <g id="line2d_64">
      <g>
       <use xlink:href="#m0ad623d12a" x="558.18" y="350.677781" style="stroke: #000000; stroke-width: 0.6"/>
      </g>
     </g>
    </g>
    <g id="ytick_12">
     <g id="line2d_65">
      <g>
       <use xlink:href="#me848aa49d2" x="48.408905" y="344.851895" style="stroke: #000000; stroke-width: 0.6"/>
      </g>
     </g>
     <g id="line2d_66">
      <g>
       <use xlink:href="#m0ad623d12a" x="558.18" y="344.851895" style="stroke: #000000; stroke-width: 0.6"/>
      </g>
     </g>
    </g>
    <g id="ytick_13">
     <g id="line2d_67">
      <g>
       <use xlink:href="#me848aa49d2" x="48.408905" y="340.091799" style="stroke: #000000; stroke-width: 0.6"/>
      </g>
     </g>
     <g id="line2d_68">
      <g>
       <use xlink:href="#m0ad623d12a" x="558.18" y="340.091799" style="stroke: #000000; stroke-width: 0.6"/>
      </g>
     </g>
    </g>
    <g id="ytick_14">
     <g id="line2d_69">
      <g>
       <use xlink:href="#me848aa49d2" x="48.408905" y="336.067195" style="stroke: #000000; stroke-width: 0.6"/>
      </g>
     </g>
     <g id="line2d_70">
      <g>
       <use xlink:href="#m0ad623d12a" x="558.18" y="336.067195" style="stroke: #000000; stroke-width: 0.6"/>
      </g>
     </g>
    </g>
    <g id="ytick_15">
     <g id="line2d_71">
      <g>
       <use xlink:href="#me848aa49d2" x="48.408905" y="332.580925" style="stroke: #000000; stroke-width: 0.6"/>
      </g>
     </g>
     <g id="line2d_72">
      <g>
       <use xlink:href="#m0ad623d12a" x="558.18" y="332.580925" style="stroke: #000000; stroke-width: 0.6"/>
      </g>
     </g>
    </g>
    <g id="ytick_16">
     <g id="line2d_73">
      <g>
       <use xlink:href="#me848aa49d2" x="48.408905" y="329.505817" style="stroke: #000000; stroke-width: 0.6"/>
      </g>
     </g>
     <g id="line2d_74">
      <g>
       <use xlink:href="#m0ad623d12a" x="558.18" y="329.505817" style="stroke: #000000; stroke-width: 0.6"/>
      </g>
     </g>
    </g>
    <g id="ytick_17">
     <g id="line2d_75">
      <g>
       <use xlink:href="#me848aa49d2" x="48.408905" y="308.658183" style="stroke: #000000; stroke-width: 0.6"/>
      </g>
     </g>
     <g id="line2d_76">
      <g>
       <use xlink:href="#m0ad623d12a" x="558.18" y="308.658183" style="stroke: #000000; stroke-width: 0.6"/>
      </g>
     </g>
    </g>
    <g id="ytick_18">
     <g id="line2d_77">
      <g>
       <use xlink:href="#me848aa49d2" x="48.408905" y="298.0722" style="stroke: #000000; stroke-width: 0.6"/>
      </g>
     </g>
     <g id="line2d_78">
      <g>
       <use xlink:href="#m0ad623d12a" x="558.18" y="298.0722" style="stroke: #000000; stroke-width: 0.6"/>
      </g>
     </g>
    </g>
    <g id="ytick_19">
     <g id="line2d_79">
      <g>
       <use xlink:href="#me848aa49d2" x="48.408905" y="290.561326" style="stroke: #000000; stroke-width: 0.6"/>
      </g>
     </g>
     <g id="line2d_80">
      <g>
       <use xlink:href="#m0ad623d12a" x="558.18" y="290.561326" style="stroke: #000000; stroke-width: 0.6"/>
      </g>
     </g>
    </g>
    <g id="ytick_20">
     <g id="line2d_81">
      <g>
       <use xlink:href="#me848aa49d2" x="48.408905" y="284.73544" style="stroke: #000000; stroke-width: 0.6"/>
      </g>
     </g>
     <g id="line2d_82">
      <g>
       <use xlink:href="#m0ad623d12a" x="558.18" y="284.73544" style="stroke: #000000; stroke-width: 0.6"/>
      </g>
     </g>
    </g>
    <g id="ytick_21">
     <g id="line2d_83">
      <g>
       <use xlink:href="#me848aa49d2" x="48.408905" y="279.975344" style="stroke: #000000; stroke-width: 0.6"/>
      </g>
     </g>
     <g id="line2d_84">
      <g>
       <use xlink:href="#m0ad623d12a" x="558.18" y="279.975344" style="stroke: #000000; stroke-width: 0.6"/>
      </g>
     </g>
    </g>
    <g id="ytick_22">
     <g id="line2d_85">
      <g>
       <use xlink:href="#me848aa49d2" x="48.408905" y="275.950741" style="stroke: #000000; stroke-width: 0.6"/>
      </g>
     </g>
     <g id="line2d_86">
      <g>
       <use xlink:href="#m0ad623d12a" x="558.18" y="275.950741" style="stroke: #000000; stroke-width: 0.6"/>
      </g>
     </g>
    </g>
    <g id="ytick_23">
     <g id="line2d_87">
      <g>
       <use xlink:href="#me848aa49d2" x="48.408905" y="272.46447" style="stroke: #000000; stroke-width: 0.6"/>
      </g>
     </g>
     <g id="line2d_88">
      <g>
       <use xlink:href="#m0ad623d12a" x="558.18" y="272.46447" style="stroke: #000000; stroke-width: 0.6"/>
      </g>
     </g>
    </g>
    <g id="ytick_24">
     <g id="line2d_89">
      <g>
       <use xlink:href="#me848aa49d2" x="48.408905" y="269.389362" style="stroke: #000000; stroke-width: 0.6"/>
      </g>
     </g>
     <g id="line2d_90">
      <g>
       <use xlink:href="#m0ad623d12a" x="558.18" y="269.389362" style="stroke: #000000; stroke-width: 0.6"/>
      </g>
     </g>
    </g>
    <g id="ytick_25">
     <g id="line2d_91">
      <g>
       <use xlink:href="#me848aa49d2" x="48.408905" y="248.541728" style="stroke: #000000; stroke-width: 0.6"/>
      </g>
     </g>
     <g id="line2d_92">
      <g>
       <use xlink:href="#m0ad623d12a" x="558.18" y="248.541728" style="stroke: #000000; stroke-width: 0.6"/>
      </g>
     </g>
    </g>
    <g id="ytick_26">
     <g id="line2d_93">
      <g>
       <use xlink:href="#me848aa49d2" x="48.408905" y="237.955746" style="stroke: #000000; stroke-width: 0.6"/>
      </g>
     </g>
     <g id="line2d_94">
      <g>
       <use xlink:href="#m0ad623d12a" x="558.18" y="237.955746" style="stroke: #000000; stroke-width: 0.6"/>
      </g>
     </g>
    </g>
    <g id="ytick_27">
     <g id="line2d_95">
      <g>
       <use xlink:href="#me848aa49d2" x="48.408905" y="230.444872" style="stroke: #000000; stroke-width: 0.6"/>
      </g>
     </g>
     <g id="line2d_96">
      <g>
       <use xlink:href="#m0ad623d12a" x="558.18" y="230.444872" style="stroke: #000000; stroke-width: 0.6"/>
      </g>
     </g>
    </g>
    <g id="ytick_28">
     <g id="line2d_97">
      <g>
       <use xlink:href="#me848aa49d2" x="48.408905" y="224.618985" style="stroke: #000000; stroke-width: 0.6"/>
      </g>
     </g>
     <g id="line2d_98">
      <g>
       <use xlink:href="#m0ad623d12a" x="558.18" y="224.618985" style="stroke: #000000; stroke-width: 0.6"/>
      </g>
     </g>
    </g>
    <g id="ytick_29">
     <g id="line2d_99">
      <g>
       <use xlink:href="#me848aa49d2" x="48.408905" y="219.85889" style="stroke: #000000; stroke-width: 0.6"/>
      </g>
     </g>
     <g id="line2d_100">
      <g>
       <use xlink:href="#m0ad623d12a" x="558.18" y="219.85889" style="stroke: #000000; stroke-width: 0.6"/>
      </g>
     </g>
    </g>
    <g id="ytick_30">
     <g id="line2d_101">
      <g>
       <use xlink:href="#me848aa49d2" x="48.408905" y="215.834286" style="stroke: #000000; stroke-width: 0.6"/>
      </g>
     </g>
     <g id="line2d_102">
      <g>
       <use xlink:href="#m0ad623d12a" x="558.18" y="215.834286" style="stroke: #000000; stroke-width: 0.6"/>
      </g>
     </g>
    </g>
    <g id="ytick_31">
     <g id="line2d_103">
      <g>
       <use xlink:href="#me848aa49d2" x="48.408905" y="212.348016" style="stroke: #000000; stroke-width: 0.6"/>
      </g>
     </g>
     <g id="line2d_104">
      <g>
       <use xlink:href="#m0ad623d12a" x="558.18" y="212.348016" style="stroke: #000000; stroke-width: 0.6"/>
      </g>
     </g>
    </g>
    <g id="ytick_32">
     <g id="line2d_105">
      <g>
       <use xlink:href="#me848aa49d2" x="48.408905" y="209.272907" style="stroke: #000000; stroke-width: 0.6"/>
      </g>
     </g>
     <g id="line2d_106">
      <g>
       <use xlink:href="#m0ad623d12a" x="558.18" y="209.272907" style="stroke: #000000; stroke-width: 0.6"/>
      </g>
     </g>
    </g>
    <g id="ytick_33">
     <g id="line2d_107">
      <g>
       <use xlink:href="#me848aa49d2" x="48.408905" y="188.425273" style="stroke: #000000; stroke-width: 0.6"/>
      </g>
     </g>
     <g id="line2d_108">
      <g>
       <use xlink:href="#m0ad623d12a" x="558.18" y="188.425273" style="stroke: #000000; stroke-width: 0.6"/>
      </g>
     </g>
    </g>
    <g id="ytick_34">
     <g id="line2d_109">
      <g>
       <use xlink:href="#me848aa49d2" x="48.408905" y="177.839291" style="stroke: #000000; stroke-width: 0.6"/>
      </g>
     </g>
     <g id="line2d_110">
      <g>
       <use xlink:href="#m0ad623d12a" x="558.18" y="177.839291" style="stroke: #000000; stroke-width: 0.6"/>
      </g>
     </g>
    </g>
    <g id="ytick_35">
     <g id="line2d_111">
      <g>
       <use xlink:href="#me848aa49d2" x="48.408905" y="170.328417" style="stroke: #000000; stroke-width: 0.6"/>
      </g>
     </g>
     <g id="line2d_112">
      <g>
       <use xlink:href="#m0ad623d12a" x="558.18" y="170.328417" style="stroke: #000000; stroke-width: 0.6"/>
      </g>
     </g>
    </g>
    <g id="ytick_36">
     <g id="line2d_113">
      <g>
       <use xlink:href="#me848aa49d2" x="48.408905" y="164.502531" style="stroke: #000000; stroke-width: 0.6"/>
      </g>
     </g>
     <g id="line2d_114">
      <g>
       <use xlink:href="#m0ad623d12a" x="558.18" y="164.502531" style="stroke: #000000; stroke-width: 0.6"/>
      </g>
     </g>
    </g>
    <g id="ytick_37">
     <g id="line2d_115">
      <g>
       <use xlink:href="#me848aa49d2" x="48.408905" y="159.742435" style="stroke: #000000; stroke-width: 0.6"/>
      </g>
     </g>
     <g id="line2d_116">
      <g>
       <use xlink:href="#m0ad623d12a" x="558.18" y="159.742435" style="stroke: #000000; stroke-width: 0.6"/>
      </g>
     </g>
    </g>
    <g id="ytick_38">
     <g id="line2d_117">
      <g>
       <use xlink:href="#me848aa49d2" x="48.408905" y="155.717831" style="stroke: #000000; stroke-width: 0.6"/>
      </g>
     </g>
     <g id="line2d_118">
      <g>
       <use xlink:href="#m0ad623d12a" x="558.18" y="155.717831" style="stroke: #000000; stroke-width: 0.6"/>
      </g>
     </g>
    </g>
    <g id="ytick_39">
     <g id="line2d_119">
      <g>
       <use xlink:href="#me848aa49d2" x="48.408905" y="152.231561" style="stroke: #000000; stroke-width: 0.6"/>
      </g>
     </g>
     <g id="line2d_120">
      <g>
       <use xlink:href="#m0ad623d12a" x="558.18" y="152.231561" style="stroke: #000000; stroke-width: 0.6"/>
      </g>
     </g>
    </g>
    <g id="ytick_40">
     <g id="line2d_121">
      <g>
       <use xlink:href="#me848aa49d2" x="48.408905" y="149.156453" style="stroke: #000000; stroke-width: 0.6"/>
      </g>
     </g>
     <g id="line2d_122">
      <g>
       <use xlink:href="#m0ad623d12a" x="558.18" y="149.156453" style="stroke: #000000; stroke-width: 0.6"/>
      </g>
     </g>
    </g>
    <g id="ytick_41">
     <g id="line2d_123">
      <g>
       <use xlink:href="#me848aa49d2" x="48.408905" y="128.308819" style="stroke: #000000; stroke-width: 0.6"/>
      </g>
     </g>
     <g id="line2d_124">
      <g>
       <use xlink:href="#m0ad623d12a" x="558.18" y="128.308819" style="stroke: #000000; stroke-width: 0.6"/>
      </g>
     </g>
    </g>
    <g id="ytick_42">
     <g id="line2d_125">
      <g>
       <use xlink:href="#me848aa49d2" x="48.408905" y="117.722836" style="stroke: #000000; stroke-width: 0.6"/>
      </g>
     </g>
     <g id="line2d_126">
      <g>
       <use xlink:href="#m0ad623d12a" x="558.18" y="117.722836" style="stroke: #000000; stroke-width: 0.6"/>
      </g>
     </g>
    </g>
    <g id="ytick_43">
     <g id="line2d_127">
      <g>
       <use xlink:href="#me848aa49d2" x="48.408905" y="110.211962" style="stroke: #000000; stroke-width: 0.6"/>
      </g>
     </g>
     <g id="line2d_128">
      <g>
       <use xlink:href="#m0ad623d12a" x="558.18" y="110.211962" style="stroke: #000000; stroke-width: 0.6"/>
      </g>
     </g>
    </g>
    <g id="ytick_44">
     <g id="line2d_129">
      <g>
       <use xlink:href="#me848aa49d2" x="48.408905" y="104.386076" style="stroke: #000000; stroke-width: 0.6"/>
      </g>
     </g>
     <g id="line2d_130">
      <g>
       <use xlink:href="#m0ad623d12a" x="558.18" y="104.386076" style="stroke: #000000; stroke-width: 0.6"/>
      </g>
     </g>
    </g>
    <g id="ytick_45">
     <g id="line2d_131">
      <g>
       <use xlink:href="#me848aa49d2" x="48.408905" y="99.62598" style="stroke: #000000; stroke-width: 0.6"/>
      </g>
     </g>
     <g id="line2d_132">
      <g>
       <use xlink:href="#m0ad623d12a" x="558.18" y="99.62598" style="stroke: #000000; stroke-width: 0.6"/>
      </g>
     </g>
    </g>
    <g id="ytick_46">
     <g id="line2d_133">
      <g>
       <use xlink:href="#me848aa49d2" x="48.408905" y="95.601377" style="stroke: #000000; stroke-width: 0.6"/>
      </g>
     </g>
     <g id="line2d_134">
      <g>
       <use xlink:href="#m0ad623d12a" x="558.18" y="95.601377" style="stroke: #000000; stroke-width: 0.6"/>
      </g>
     </g>
    </g>
    <g id="ytick_47">
     <g id="line2d_135">
      <g>
       <use xlink:href="#me848aa49d2" x="48.408905" y="92.115106" style="stroke: #000000; stroke-width: 0.6"/>
      </g>
     </g>
     <g id="line2d_136">
      <g>
       <use xlink:href="#m0ad623d12a" x="558.18" y="92.115106" style="stroke: #000000; stroke-width: 0.6"/>
      </g>
     </g>
    </g>
    <g id="ytick_48">
     <g id="line2d_137">
      <g>
       <use xlink:href="#me848aa49d2" x="48.408905" y="89.039998" style="stroke: #000000; stroke-width: 0.6"/>
      </g>
     </g>
     <g id="line2d_138">
      <g>
       <use xlink:href="#m0ad623d12a" x="558.18" y="89.039998" style="stroke: #000000; stroke-width: 0.6"/>
      </g>
     </g>
    </g>
    <g id="ytick_49">
     <g id="line2d_139">
      <g>
       <use xlink:href="#me848aa49d2" x="48.408905" y="68.192364" style="stroke: #000000; stroke-width: 0.6"/>
      </g>
     </g>
     <g id="line2d_140">
      <g>
       <use xlink:href="#m0ad623d12a" x="558.18" y="68.192364" style="stroke: #000000; stroke-width: 0.6"/>
      </g>
     </g>
    </g>
    <g id="ytick_50">
     <g id="line2d_141">
      <g>
       <use xlink:href="#me848aa49d2" x="48.408905" y="57.606382" style="stroke: #000000; stroke-width: 0.6"/>
      </g>
     </g>
     <g id="line2d_142">
      <g>
       <use xlink:href="#m0ad623d12a" x="558.18" y="57.606382" style="stroke: #000000; stroke-width: 0.6"/>
      </g>
     </g>
    </g>
    <g id="ytick_51">
     <g id="line2d_143">
      <g>
       <use xlink:href="#me848aa49d2" x="48.408905" y="50.095508" style="stroke: #000000; stroke-width: 0.6"/>
      </g>
     </g>
     <g id="line2d_144">
      <g>
       <use xlink:href="#m0ad623d12a" x="558.18" y="50.095508" style="stroke: #000000; stroke-width: 0.6"/>
      </g>
     </g>
    </g>
    <g id="ytick_52">
     <g id="line2d_145">
      <g>
       <use xlink:href="#me848aa49d2" x="48.408905" y="44.269621" style="stroke: #000000; stroke-width: 0.6"/>
      </g>
     </g>
     <g id="line2d_146">
      <g>
       <use xlink:href="#m0ad623d12a" x="558.18" y="44.269621" style="stroke: #000000; stroke-width: 0.6"/>
      </g>
     </g>
    </g>
    <g id="ytick_53">
     <g id="line2d_147">
      <g>
       <use xlink:href="#me848aa49d2" x="48.408905" y="39.509526" style="stroke: #000000; stroke-width: 0.6"/>
      </g>
     </g>
     <g id="line2d_148">
      <g>
       <use xlink:href="#m0ad623d12a" x="558.18" y="39.509526" style="stroke: #000000; stroke-width: 0.6"/>
      </g>
     </g>
    </g>
    <g id="ytick_54">
     <g id="line2d_149">
      <g>
       <use xlink:href="#me848aa49d2" x="48.408905" y="35.484922" style="stroke: #000000; stroke-width: 0.6"/>
      </g>
     </g>
     <g id="line2d_150">
      <g>
       <use xlink:href="#m0ad623d12a" x="558.18" y="35.484922" style="stroke: #000000; stroke-width: 0.6"/>
      </g>
     </g>
    </g>
    <g id="ytick_55">
     <g id="line2d_151">
      <g>
       <use xlink:href="#me848aa49d2" x="48.408905" y="31.998652" style="stroke: #000000; stroke-width: 0.6"/>
      </g>
     </g>
     <g id="line2d_152">
      <g>
       <use xlink:href="#m0ad623d12a" x="558.18" y="31.998652" style="stroke: #000000; stroke-width: 0.6"/>
      </g>
     </g>
    </g>
    <g id="ytick_56">
     <g id="line2d_153">
      <g>
       <use xlink:href="#me848aa49d2" x="48.408905" y="28.923543" style="stroke: #000000; stroke-width: 0.6"/>
      </g>
     </g>
     <g id="line2d_154">
      <g>
       <use xlink:href="#m0ad623d12a" x="558.18" y="28.923543" style="stroke: #000000; stroke-width: 0.6"/>
      </g>
     </g>
    </g>
    <g id="text_15">
     <!-- Count -->
     <g transform="translate(22.15953 67.077938) rotate(-90) scale(0.14 -0.14)">
      <defs>
       <path id="NimbusSans-Regular-43" d="M 4238 3219 
L 3625 3219 
Q 3531 3700 3291 3925 
Q 2972 4216 2369 4216 
Q 1688 4216 1319 3734 
Q 900 3184 900 2288 
Q 900 1425 1306 897 
Q 1488 659 1778 519 
Q 2072 378 2416 378 
Q 2794 378 3078 534 
Q 3363 691 3509 978 
Q 3644 1247 3719 1703 
L 4331 1703 
Q 4116 -147 2413 -147 
Q 1513 -147 981 400 
Q 306 1094 306 2278 
Q 306 3444 956 4163 
Q 1484 4744 2438 4744 
Q 3441 4744 3891 4100 
Q 4138 3747 4238 3219 
z
" transform="scale(0.015625)"/>
       <path id="NimbusSans-Regular-75" d="M 3084 0 
L 2603 0 
L 2603 466 
Q 2375 134 2115 -8 
Q 1856 -150 1484 -150 
Q 1047 -150 759 53 
Q 416 300 416 766 
L 416 3353 
L 947 3353 
L 947 981 
Q 947 641 1169 469 
Q 1359 319 1638 319 
Q 2019 319 2275 594 
Q 2553 891 2553 1456 
L 2553 3353 
L 3084 3353 
L 3084 0 
z
" transform="scale(0.015625)"/>
       <path id="NimbusSans-Regular-6e" d="M 447 3353 
L 941 3353 
L 941 2794 
Q 1119 3078 1309 3219 
Q 1619 3450 2053 3450 
Q 2484 3450 2772 3247 
Q 3116 3000 3116 2538 
L 3116 0 
L 2584 0 
L 2584 2322 
Q 2584 2659 2366 2831 
Q 2172 2981 1894 2981 
Q 1519 2981 1263 2709 
Q 984 2409 984 1847 
L 984 0 
L 447 0 
L 447 3353 
z
" transform="scale(0.015625)"/>
       <path id="NimbusSans-Regular-74" d="M 1628 3353 
L 1628 2919 
L 1075 2919 
L 1075 622 
Q 1075 447 1136 384 
Q 1197 322 1372 322 
Q 1522 322 1628 347 
L 1628 -100 
Q 1381 -147 1191 -147 
Q 878 -147 711 -11 
Q 544 125 544 384 
L 544 2919 
L 91 2919 
L 91 3353 
L 544 3353 
L 544 4275 
L 1075 4275 
L 1075 3353 
L 1628 3353 
z
" transform="scale(0.015625)"/>
      </defs>
      <use xlink:href="#NimbusSans-Regular-43"/>
      <use xlink:href="#NimbusSans-Regular-6f" transform="translate(71.966797 0)"/>
      <use xlink:href="#NimbusSans-Regular-75" transform="translate(127.582031 0)"/>
      <use xlink:href="#NimbusSans-Regular-6e" transform="translate(183.197266 0)"/>
      <use xlink:href="#NimbusSans-Regular-74" transform="translate(238.8125 0)"/>
     </g>
    </g>
   </g>
   <g id="patch_3">
    <path d="M 48.427775 433 
L 48.427775 301.508788 
L 53.525297 301.508788 
L 53.525297 317.600003 
L 58.622819 317.600003 
L 58.622819 332.909335 
L 63.720341 332.909335 
L 63.720341 344.334883 
L 68.817864 344.334883 
L 68.817864 336.44286 
L 73.915385 336.44286 
L 73.915385 353.428559 
L 79.012907 353.428559 
L 79.012907 338.406811 
L 84.110425 338.406811 
L 84.110425 343.330596 
L 89.207949 343.330596 
L 89.207949 352.71322 
L 94.305473 352.71322 
L 94.305473 354.920865 
L 99.402993 354.920865 
L 99.402993 348.1894 
L 104.500513 348.1894 
L 104.500513 351.338785 
L 109.598037 351.338785 
L 109.598037 354.164051 
L 114.695561 354.164051 
L 114.695561 356.503668 
L 119.793077 356.503668 
L 119.793077 352.016959 
L 124.8906 352.016959 
L 124.8906 354.164051 
L 129.988124 354.164051 
L 129.988124 359.073765 
L 135.085648 359.073765 
L 135.085648 360.939433 
L 140.183172 360.939433 
L 140.183172 355.700274 
L 150.378212 355.700274 
L 150.378212 362.948751 
L 155.475736 362.948751 
L 155.475736 368.774637 
L 160.573252 368.774637 
L 160.573252 373.017721 
L 165.670775 373.017721 
L 165.670775 361.924767 
L 170.768299 361.924767 
L 170.768299 370.113815 
L 175.865823 370.113815 
L 175.865823 354.920865 
L 180.963347 354.920865 
L 180.963347 368.774637 
L 191.158379 368.774637 
L 191.158379 361.924767 
L 196.255903 361.924767 
L 196.255903 373.017721 
L 201.353427 373.017721 
L 201.353427 364.014541 
L 211.548474 364.014541 
L 211.548474 362.948751 
L 216.645998 362.948751 
L 216.645998 359.073765 
L 221.743522 359.073765 
L 221.743522 354.920865 
L 226.841046 354.920865 
L 226.841046 365.125698 
L 231.938569 365.125698 
L 231.938569 364.014541 
L 237.036078 364.014541 
L 237.036078 361.924767 
L 242.133602 361.924767 
L 242.133602 367.500812 
L 252.328649 367.500812 
L 252.328649 370.113815 
L 257.426173 370.113815 
L 257.426173 364.014541 
L 262.523697 364.014541 
L 262.523697 352.71322 
L 267.621221 352.71322 
L 267.621221 364.014541 
L 272.718729 364.014541 
L 272.718729 365.125698 
L 282.913777 365.125698 
L 282.913777 359.989938 
L 288.011301 359.989938 
L 288.011301 362.948751 
L 293.108824 362.948751 
L 293.108824 366.286256 
L 298.206348 366.286256 
L 298.206348 356.503668 
L 303.303872 356.503668 
L 303.303872 352.71322 
L 308.401396 352.71322 
L 308.401396 356.503668 
L 313.498919 356.503668 
L 313.498919 360.939433 
L 318.596443 360.939433 
L 318.596443 353.428559 
L 323.693967 353.428559 
L 323.693967 365.125698 
L 328.791491 365.125698 
L 328.791491 351.338785 
L 333.888984 351.338785 
L 333.888984 358.188655 
L 344.084032 358.188655 
L 344.084032 344.851895 
L 349.181556 344.851895 
L 349.181556 360.939433 
L 359.376603 360.939433 
L 359.376603 344.334883 
L 364.474127 344.334883 
L 364.474127 354.164051 
L 369.571651 354.164051 
L 369.571651 348.789616 
L 374.669174 348.789616 
L 374.669174 359.073765 
L 379.766698 359.073765 
L 379.766698 349.403956 
L 384.864222 349.403956 
L 384.864222 355.700274 
L 389.961746 355.700274 
L 389.961746 343.827911 
L 395.05927 343.827911 
L 395.05927 348.1894 
L 400.156793 348.1894 
L 400.156793 350.677781 
L 405.254317 350.677781 
L 405.254317 341.430977 
L 410.351841 341.430977 
L 410.351841 343.827911 
L 415.449365 343.827911 
L 415.449365 333.920103 
L 420.546858 333.920103 
L 420.546858 337.603417 
L 425.644382 337.603417 
L 425.644382 344.334883 
L 430.741906 344.334883 
L 430.741906 341.893082 
L 435.839429 341.893082 
L 435.839429 331.619777 
L 440.936953 331.619777 
L 440.936953 339.660248 
L 446.034477 339.660248 
L 446.034477 329.505817 
L 451.132001 329.505817 
L 451.132001 325.481213 
L 456.229524 325.481213 
L 456.229524 329.505817 
L 461.327048 329.505817 
L 461.327048 321.563392 
L 466.424572 321.563392 
L 466.424572 326.238027 
L 471.522096 326.238027 
L 471.522096 322.213423 
L 476.61962 322.213423 
L 476.61962 315.823247 
L 481.717143 315.823247 
L 481.717143 313.839388 
L 486.814667 313.839388 
L 486.814667 309.99736 
L 491.912191 309.99736 
L 491.912191 309.052773 
L 497.009684 309.052773 
L 497.009684 302.315284 
L 502.107208 302.315284 
L 502.107208 296.387213 
L 507.204732 296.387213 
L 507.204732 290.626679 
L 512.302256 290.626679 
L 512.302256 281.268758 
L 517.399779 281.268758 
L 517.399779 276.861586 
L 522.497303 276.861586 
L 522.497303 272.759853 
L 527.594827 272.759853 
L 527.594827 269.360369 
L 532.692351 269.360369 
L 532.692351 264.484622 
L 537.789875 264.484622 
L 537.789875 260.193501 
L 542.887398 260.193501 
L 542.887398 250.70449 
L 547.984922 250.70449 
L 547.984922 234.95811 
L 553.082446 234.95811 
L 553.082446 100.259061 
L 558.179939 100.259061 
L 558.179939 433 
L 558.179939 433 
" clip-path="url(#p40666a9ccd)" style="fill: none; stroke: #1f77b4; stroke-width: 2; stroke-linejoin: miter"/>
   </g>
   <g id="patch_4">
    <path d="M 48.409848 433 
L 48.409848 122.890673 
L 53.507549 122.890673 
L 53.507549 150.211367 
L 58.60525 150.211367 
L 58.60525 164.864804 
L 63.702951 164.864804 
L 63.702951 174.816839 
L 68.800653 174.816839 
L 68.800653 181.936373 
L 73.898353 181.936373 
L 73.898353 187.488042 
L 78.996055 187.488042 
L 78.996055 192.788424 
L 84.093752 192.788424 
L 84.093752 196.145853 
L 89.191454 196.145853 
L 89.191454 200.386873 
L 94.289156 200.386873 
L 94.289156 202.864111 
L 99.386855 202.864111 
L 99.386855 206.246838 
L 104.484557 206.246838 
L 104.484557 207.533584 
L 109.582259 207.533584 
L 109.582259 209.862601 
L 114.679958 209.862601 
L 114.679958 211.475092 
L 119.777656 211.475092 
L 119.777656 213.328957 
L 124.875363 213.328957 
L 124.875363 214.578227 
L 129.973061 214.578227 
L 129.973061 215.309962 
L 135.07076 215.309962 
L 135.07076 216.255396 
L 140.168466 216.255396 
L 140.168466 217.954538 
L 145.266164 217.954538 
L 145.266164 218.288376 
L 150.363863 218.288376 
L 150.363863 219.286478 
L 155.461569 219.286478 
L 155.461569 220.654126 
L 160.559267 220.654126 
L 160.559267 221.322032 
L 165.656966 221.322032 
L 165.656966 221.795727 
L 170.754672 221.795727 
L 170.754672 222.580675 
L 180.950069 222.595167 
L 180.950069 223.102613 
L 186.047775 223.102613 
L 186.047775 224.297234 
L 191.145466 224.297234 
L 191.145466 224.045722 
L 196.243172 224.045722 
L 196.243172 224.73936 
L 201.340878 224.73936 
L 201.340878 225.355074 
L 206.438569 225.355074 
L 206.438569 225.592473 
L 211.536275 225.592473 
L 211.536275 225.130463 
L 216.633981 225.130463 
L 216.633981 225.457323 
L 221.731672 225.457323 
L 221.731672 225.914228 
L 226.829378 225.914228 
L 226.829378 226.915396 
L 231.927084 226.915396 
L 231.927084 226.654424 
L 237.024775 226.654424 
L 237.024775 226.97819 
L 242.122481 226.97819 
L 242.122481 226.251114 
L 247.220187 226.251114 
L 247.220187 226.801609 
L 252.317878 226.801609 
L 252.317878 226.024204 
L 257.415584 226.024204 
L 257.415584 226.915396 
L 262.51329 226.915396 
L 262.51329 226.035228 
L 267.610981 226.035228 
L 267.610981 225.804714 
L 272.708687 225.804714 
L 272.708687 226.49684 
L 277.806393 226.49684 
L 277.806393 227.179002 
L 282.904084 227.179002 
L 282.904084 225.875846 
L 293.099496 225.86489 
L 293.099496 226.051771 
L 298.197187 226.051771 
L 298.197187 225.587053 
L 303.294908 225.587053 
L 303.294908 225.029484 
L 313.49029 224.976494 
L 313.49029 225.178432 
L 318.587996 225.178432 
L 318.587996 224.43168 
L 333.881084 224.348862 
L 333.881084 223.524804 
L 338.97879 223.524804 
L 338.97879 223.720825 
L 344.076496 223.720825 
L 344.076496 223.564894 
L 349.174202 223.564894 
L 349.174202 222.823273 
L 364.46729 222.920947 
L 364.46729 221.655511 
L 374.662702 221.674163 
L 374.662702 221.25309 
L 379.760409 221.25309 
L 379.760409 220.838701 
L 384.858115 220.838701 
L 384.858115 219.867594 
L 389.95579 219.867594 
L 389.95579 220.002881 
L 395.053496 220.002881 
L 395.053496 219.27371 
L 400.151202 219.27371 
L 400.151202 218.564351 
L 405.248909 218.564351 
L 405.248909 217.922196 
L 410.346615 217.922196 
L 410.346615 216.752857 
L 415.444321 216.752857 
L 415.444321 217.106806 
L 420.541996 217.106806 
L 420.541996 215.785844 
L 425.639703 215.785844 
L 425.639703 214.993847 
L 430.737409 214.993847 
L 430.737409 213.925312 
L 435.835115 213.925312 
L 435.835115 213.237628 
L 440.932821 213.237628 
L 440.932821 211.716074 
L 446.030527 211.716074 
L 446.030527 210.332655 
L 451.128203 210.332655 
L 451.128203 209.608662 
L 456.225909 209.608662 
L 456.225909 208.608423 
L 461.323615 208.608423 
L 461.323615 207.7434 
L 466.421321 207.7434 
L 466.421321 206.824114 
L 471.519027 206.824114 
L 471.519027 205.340467 
L 476.616733 205.340467 
L 476.616733 204.680149 
L 481.714409 204.680149 
L 481.714409 203.950808 
L 486.812115 203.950808 
L 486.812115 202.766705 
L 491.909821 202.766705 
L 491.909821 201.725073 
L 497.007527 201.725073 
L 497.007527 200.052581 
L 502.105233 200.052581 
L 502.105233 198.715951 
L 507.202939 198.715951 
L 507.202939 196.579305 
L 512.300615 196.579305 
L 512.300615 194.409923 
L 517.398321 194.409923 
L 517.398321 191.932438 
L 522.496027 191.932438 
L 522.496027 188.315848 
L 527.593733 188.315848 
L 527.593733 184.383146 
L 532.691439 184.383146 
L 532.691439 179.000442 
L 537.789145 179.000442 
L 537.789145 172.07265 
L 542.886821 172.07265 
L 542.886821 162.704869 
L 547.984527 162.704869 
L 547.984527 147.014781 
L 553.082233 147.014781 
L 553.082233 88.426439 
L 558.179939 88.426439 
L 558.179939 433 
L 558.179939 433 
" clip-path="url(#p40666a9ccd)" style="fill: none; stroke: #2ca02c; stroke-width: 2; stroke-linejoin: miter"/>
   </g>
   <g id="patch_5">
    <path d="M 48.409123 433 
L 48.409123 34.572145 
L 53.506816 34.572145 
L 53.506816 152.023202 
L 58.604508 152.023202 
L 58.604508 174.517038 
L 63.702201 174.517038 
L 63.702201 188.024985 
L 68.799895 188.024985 
L 68.799895 198.984508 
L 73.897588 198.984508 
L 73.897588 206.454336 
L 78.99528 206.454336 
L 78.99528 213.697502 
L 84.092973 213.697502 
L 84.092973 219.159079 
L 89.190664 219.159079 
L 89.190664 223.419862 
L 94.288355 223.419862 
L 94.288355 228.917416 
L 99.38605 228.917416 
L 99.38605 231.977138 
L 104.483744 231.977138 
L 104.483744 235.745749 
L 109.581435 235.745749 
L 109.581435 237.790915 
L 114.67913 237.790915 
L 114.67913 241.184692 
L 119.776828 241.184692 
L 119.776828 244.088019 
L 124.874519 244.088019 
L 124.874519 246.124648 
L 129.97221 246.124648 
L 129.97221 248.050325 
L 135.069901 248.050325 
L 135.069901 249.202731 
L 140.167592 249.202731 
L 140.167592 252.662238 
L 145.265291 252.662238 
L 145.265291 254.811951 
L 150.362981 254.811951 
L 150.362981 254.318707 
L 155.460672 254.318707 
L 155.460672 256.22724 
L 160.558371 256.22724 
L 160.558371 258.041041 
L 165.656062 258.041041 
L 165.656062 260.542574 
L 170.753753 260.542574 
L 170.753753 261.022403 
L 175.851443 261.022403 
L 175.851443 262.472633 
L 180.949127 262.472633 
L 180.949127 262.876377 
L 186.046818 262.876377 
L 186.046818 267.006682 
L 191.144524 267.006682 
L 191.144524 264.70189 
L 196.242215 264.70189 
L 196.242215 266.980217 
L 201.339906 266.980217 
L 201.339906 267.786091 
L 206.437596 267.786091 
L 206.437596 268.449193 
L 211.535287 268.449193 
L 211.535287 269.798682 
L 216.632978 269.798682 
L 216.632978 271.097567 
L 221.730669 271.097567 
L 221.730669 271.756189 
L 226.82836 271.756189 
L 226.82836 272.14014 
L 231.926051 272.14014 
L 231.926051 273.803648 
L 237.023757 273.803648 
L 237.023757 274.641418 
L 242.121448 274.641418 
L 242.121448 276.250839 
L 247.219139 276.250839 
L 247.219139 276.592624 
L 252.31683 276.592624 
L 252.31683 277.133347 
L 257.414521 277.133347 
L 257.414521 275.070604 
L 262.512211 275.070604 
L 262.512211 277.172402 
L 267.609902 277.172402 
L 267.609902 278.577489 
L 272.707608 278.577489 
L 272.707608 277.925767 
L 277.805299 277.925767 
L 277.805299 279.458332 
L 282.90299 279.458332 
L 282.90299 281.498384 
L 288.000681 281.498384 
L 288.000681 279.801867 
L 293.098372 279.801867 
L 293.098372 281.870038 
L 298.196063 281.870038 
L 298.196063 279.373151 
L 303.293754 279.373151 
L 303.293754 280.591756 
L 308.39146 280.591756 
L 308.39146 281.268758 
L 313.489136 281.268758 
L 313.489136 282.057868 
L 318.586842 282.057868 
L 318.586842 285.476901 
L 323.684517 285.476901 
L 323.684517 282.581478 
L 328.782223 282.581478 
L 328.782223 283.812066 
L 333.87993 283.812066 
L 333.87993 285.209669 
L 338.977605 285.209669 
L 338.977605 284.0653 
L 349.172987 283.963712 
L 349.172987 282.920237 
L 354.270693 282.920237 
L 354.270693 284.997837 
L 359.368369 284.997837 
L 359.368369 284.475654 
L 369.563751 284.424006 
L 369.563751 284.116243 
L 374.661457 284.116243 
L 374.661457 285.209669 
L 384.856838 285.15655 
L 384.856838 283.761713 
L 389.954545 283.761713 
L 389.954545 284.37246 
L 395.05222 284.37246 
L 395.05222 284.0653 
L 400.149926 284.0653 
L 400.149926 285.746895 
L 405.247602 285.746895 
L 405.247602 287.602513 
L 410.345308 287.602513 
L 410.345308 285.638562 
L 415.442984 285.638562 
L 415.442984 285.964919 
L 420.54069 285.964919 
L 420.54069 284.683276 
L 425.638396 284.683276 
L 425.638396 283.461615 
L 430.736072 283.461615 
L 430.736072 284.73544 
L 435.833778 284.73544 
L 435.833778 285.209669 
L 440.931453 285.209669 
L 440.931453 282.199632 
L 451.126835 282.152292 
L 451.126835 281.177471 
L 456.224541 281.177471 
L 456.224541 281.314522 
L 461.322247 281.314522 
L 461.322247 279.501028 
L 466.419923 279.501028 
L 466.419923 279.931867 
L 471.517629 279.931867 
L 471.517629 278.867814 
L 476.615305 278.867814 
L 476.615305 278.536276 
L 481.713011 278.536276 
L 481.713011 278.208896 
L 486.810687 278.208896 
L 486.810687 275.654053 
L 491.908393 275.654053 
L 491.908393 275.215249 
L 497.006099 275.215249 
L 497.006099 274.289075 
L 502.103775 274.289075 
L 502.103775 270.545964 
L 507.201481 270.545964 
L 507.201481 268.900806 
L 512.299156 268.900806 
L 512.299156 266.198474 
L 517.396862 266.198474 
L 517.396862 264.173948 
L 522.494538 264.173948 
L 522.494538 265.240729 
L 527.592244 265.240729 
L 527.592244 266.32715 
L 532.68992 266.32715 
L 532.68992 267.219378 
L 537.787626 267.219378 
L 537.787626 266.095988 
L 542.885332 266.095988 
L 542.885332 264.340774 
L 547.983008 264.340774 
L 547.983008 261.022403 
L 553.080714 261.022403 
L 553.080714 236.238143 
L 558.17842 236.238143 
L 558.17842 433 
L 558.17842 433 
" clip-path="url(#p40666a9ccd)" style="fill: none; stroke: #ff7f0e; stroke-width: 2; stroke-linejoin: miter"/>
   </g>
   <g id="line2d_155">
    <path d="M 303.294453 389.94 
L 303.294453 10.8 
" clip-path="url(#p40666a9ccd)" style="fill: none; stroke-dasharray: 5.55,2.4; stroke-dashoffset: 0; stroke: #000000; stroke-opacity: 0.7; stroke-width: 1.5"/>
   </g>
   <g id="patch_6">
    <path d="M 48.408905 389.94 
L 48.408905 10.8 
" style="fill: none; stroke: #000000; stroke-width: 0.8; stroke-linejoin: miter; stroke-linecap: square"/>
   </g>
   <g id="patch_7">
    <path d="M 558.18 389.94 
L 558.18 10.8 
" style="fill: none; stroke: #000000; stroke-width: 0.8; stroke-linejoin: miter; stroke-linecap: square"/>
   </g>
   <g id="patch_8">
    <path d="M 48.408905 389.94 
L 558.18 389.94 
" style="fill: none; stroke: #000000; stroke-width: 0.8; stroke-linejoin: miter; stroke-linecap: square"/>
   </g>
   <g id="patch_9">
    <path d="M 48.408905 10.8 
L 558.18 10.8 
" style="fill: none; stroke: #000000; stroke-width: 0.8; stroke-linejoin: miter; stroke-linecap: square"/>
   </g>
   <g id="text_16">
    <!-- TrackML dataset -->
    <g transform="translate(58.408905 31.8) scale(0.16 -0.16)">
     <defs>
      <path id="NimbusSans-BoldItalic-54" d="M 3288 3866 
L 2466 0 
L 1506 0 
L 2328 3866 
L 909 3866 
L 1078 4666 
L 4819 4666 
L 4650 3866 
L 3288 3866 
z
" transform="scale(0.015625)"/>
      <path id="NimbusSans-BoldItalic-72" d="M 1138 3456 
L 2034 3456 
L 1891 2778 
Q 2088 3088 2334 3269 
Q 2666 3513 3009 3513 
Q 3047 3513 3072 3509 
Q 3088 3509 3116 3506 
L 2925 2600 
Q 2778 2622 2653 2622 
Q 2456 2622 2303 2581 
Q 2078 2519 1914 2322 
Q 1750 2125 1691 1838 
L 1300 0 
L 403 0 
L 1138 3456 
z
" transform="scale(0.015625)"/>
      <path id="NimbusSans-BoldItalic-61" d="M 3372 109 
L 3347 0 
L 2369 0 
Q 2322 91 2322 169 
Q 2322 228 2341 344 
Q 1797 -147 1275 -147 
Q 859 -147 622 50 
Q 319 300 319 691 
Q 319 978 466 1251 
Q 613 1525 866 1706 
Q 1163 1919 1616 1991 
L 1981 2047 
Q 2325 2097 2398 2112 
Q 2472 2128 2572 2181 
Q 2669 2228 2728 2322 
Q 2788 2416 2788 2519 
Q 2788 2584 2759 2641 
Q 2684 2794 2322 2794 
Q 2222 2794 2122 2778 
Q 1906 2744 1790 2642 
Q 1675 2541 1603 2316 
L 766 2316 
Q 900 2941 1306 3227 
Q 1713 3513 2469 3513 
Q 2744 3513 2988 3466 
Q 3425 3384 3600 3078 
Q 3697 2903 3697 2741 
Q 3697 2616 3659 2447 
L 3253 531 
Q 3238 453 3238 397 
Q 3238 263 3372 109 
z
M 2609 1628 
Q 2528 1588 2483 1575 
Q 2438 1563 2206 1525 
L 1888 1472 
Q 1528 1409 1369 1231 
Q 1234 1078 1234 888 
Q 1234 569 1700 569 
Q 1803 569 1888 588 
Q 2138 641 2313 848 
Q 2488 1056 2556 1384 
L 2609 1628 
z
" transform="scale(0.015625)"/>
      <path id="NimbusSans-BoldItalic-63" d="M 3797 2163 
L 2941 2163 
Q 2934 2466 2866 2581 
Q 2744 2794 2416 2794 
Q 2238 2794 2088 2728 
Q 1759 2588 1569 2069 
Q 1409 1644 1409 1228 
Q 1409 953 1506 781 
Q 1559 688 1692 628 
Q 1825 569 1981 569 
Q 2241 569 2412 712 
Q 2584 856 2734 1197 
L 3591 1197 
Q 3425 675 3091 341 
Q 2600 -147 1866 -147 
Q 1159 -147 809 241 
Q 494 594 494 1103 
Q 494 1603 713 2163 
Q 1038 2994 1606 3297 
Q 2009 3513 2547 3513 
Q 2872 3513 3125 3422 
Q 3466 3297 3672 2963 
Q 3822 2719 3822 2438 
Q 3822 2356 3797 2163 
z
" transform="scale(0.015625)"/>
      <path id="NimbusSans-BoldItalic-6b" d="M 2266 4666 
L 1722 2113 
L 3147 3456 
L 4166 3456 
L 2684 2141 
L 3506 0 
L 2456 0 
L 1953 1531 
L 1516 1134 
L 1275 0 
L 378 0 
L 1369 4666 
L 2266 4666 
z
" transform="scale(0.015625)"/>
      <path id="NimbusSans-BoldItalic-4d" d="M 3181 0 
L 2219 0 
L 2172 3963 
L 1331 0 
L 422 0 
L 1413 4666 
L 2806 4666 
L 2931 1081 
L 4553 4666 
L 5959 4666 
L 4966 0 
L 4056 0 
L 4900 3963 
L 3181 0 
z
" transform="scale(0.015625)"/>
      <path id="NimbusSans-BoldItalic-4c" d="M 2466 4666 
L 1644 800 
L 3878 800 
L 3709 0 
L 513 0 
L 1503 4666 
L 2466 4666 
z
" transform="scale(0.015625)"/>
      <path id="NimbusSans-BoldItalic-20" transform="scale(0.015625)"/>
      <path id="NimbusSans-BoldItalic-64" d="M 2594 0 
L 2669 350 
Q 2238 -147 1609 -147 
Q 1094 -147 794 225 
Q 659 388 582 644 
Q 506 900 506 1184 
Q 506 1638 675 2091 
Q 938 2803 1394 3153 
Q 1859 3513 2384 3513 
Q 2506 3513 2628 3491 
Q 2859 3447 3000 3334 
Q 3141 3222 3231 3006 
L 3584 4666 
L 4481 4666 
L 3488 0 
L 2594 0 
z
M 2434 2797 
Q 2256 2797 2106 2713 
Q 1784 2531 1594 2100 
Q 1422 1716 1422 1316 
Q 1422 1078 1509 878 
Q 1641 569 1975 569 
Q 2159 569 2313 653 
Q 2638 831 2828 1259 
Q 2997 1647 2997 2066 
Q 2997 2403 2845 2600 
Q 2694 2797 2434 2797 
z
" transform="scale(0.015625)"/>
      <path id="NimbusSans-BoldItalic-74" d="M 2650 3384 
L 2525 2791 
L 2025 2791 
L 1625 906 
Q 1591 753 1591 691 
Q 1591 672 1600 647 
Q 1638 531 1831 531 
Q 1909 531 1978 541 
Q 2000 544 2044 550 
L 1913 -75 
Q 1666 -147 1372 -147 
Q 1197 -147 1047 -109 
Q 859 -59 753 77 
Q 647 213 647 403 
Q 647 528 678 669 
L 1128 2791 
L 684 2791 
L 809 3384 
L 1253 3384 
L 1453 4313 
L 2347 4313 
L 2150 3384 
L 2650 3384 
z
" transform="scale(0.015625)"/>
      <path id="NimbusSans-BoldItalic-73" d="M 3738 2344 
L 2872 2344 
Q 2891 2416 2891 2463 
Q 2891 2622 2742 2709 
Q 2594 2797 2325 2797 
Q 2209 2797 2094 2772 
Q 1766 2700 1766 2459 
Q 1766 2422 1778 2391 
Q 1806 2325 1890 2278 
Q 1975 2231 2184 2172 
L 2800 1991 
Q 3578 1759 3578 1200 
Q 3578 644 3181 284 
Q 2697 -147 1800 -147 
Q 1216 -147 850 63 
Q 641 184 512 392 
Q 384 600 384 816 
Q 384 866 394 922 
Q 397 950 409 1006 
L 1284 1006 
Q 1313 569 1966 569 
Q 2100 569 2228 594 
Q 2413 628 2522 717 
Q 2631 806 2631 922 
Q 2631 1034 2539 1098 
Q 2447 1163 2144 1259 
L 1641 1419 
Q 1216 1553 1014 1745 
Q 813 1938 813 2206 
Q 813 2447 934 2700 
Q 1325 3513 2475 3513 
Q 2744 3513 2997 3456 
Q 3394 3366 3584 3116 
Q 3769 2878 3769 2588 
Q 3769 2513 3753 2428 
Q 3750 2400 3738 2344 
z
" transform="scale(0.015625)"/>
      <path id="NimbusSans-BoldItalic-65" d="M 3669 1447 
L 1341 1447 
Q 1325 1238 1325 1156 
Q 1325 1100 1331 1050 
Q 1359 838 1525 703 
Q 1691 569 1931 569 
Q 2163 569 2358 678 
Q 2553 788 2647 972 
L 3531 972 
Q 3325 556 2981 272 
Q 2475 -147 1759 -147 
Q 1491 -147 1247 -66 
Q 809 78 584 484 
Q 409 794 409 1181 
Q 409 1828 747 2481 
Q 916 2803 1111 3001 
Q 1306 3200 1588 3328 
Q 1984 3513 2425 3513 
Q 2878 3513 3206 3322 
Q 3472 3169 3628 2859 
Q 3781 2559 3781 2244 
Q 3781 1875 3669 1447 
z
M 2866 2041 
L 2866 2231 
Q 2866 2456 2750 2603 
Q 2600 2794 2313 2794 
Q 1900 2794 1650 2469 
Q 1541 2325 1463 2041 
L 2866 2041 
z
" transform="scale(0.015625)"/>
     </defs>
     <use xlink:href="#NimbusSans-BoldItalic-54"/>
     <use xlink:href="#NimbusSans-BoldItalic-72" transform="translate(54.458984 0)"/>
     <use xlink:href="#NimbusSans-BoldItalic-61" transform="translate(93.25 0)"/>
     <use xlink:href="#NimbusSans-BoldItalic-63" transform="translate(148.865234 0)"/>
     <use xlink:href="#NimbusSans-BoldItalic-6b" transform="translate(204.605469 0)"/>
     <use xlink:href="#NimbusSans-BoldItalic-4d" transform="translate(260.220703 0)"/>
     <use xlink:href="#NimbusSans-BoldItalic-4c" transform="translate(343.521484 0)"/>
     <use xlink:href="#NimbusSans-BoldItalic-20" transform="translate(404.605469 0)"/>
     <use xlink:href="#NimbusSans-BoldItalic-64" transform="translate(432.388672 0)"/>
     <use xlink:href="#NimbusSans-BoldItalic-61" transform="translate(494.347656 0)"/>
     <use xlink:href="#NimbusSans-BoldItalic-74" transform="translate(549.712891 0)"/>
     <use xlink:href="#NimbusSans-BoldItalic-61" transform="translate(583.013672 0)"/>
     <use xlink:href="#NimbusSans-BoldItalic-73" transform="translate(638.503906 0)"/>
     <use xlink:href="#NimbusSans-BoldItalic-65" transform="translate(694.119141 0)"/>
     <use xlink:href="#NimbusSans-BoldItalic-74" transform="translate(749.609375 0)"/>
    </g>
   </g>
   <g id="text_17">
    <!-- 1400 train events -->
    <g transform="translate(190.178905 31.8) scale(0.16 -0.16)">
     <defs>
      <path id="NimbusSans-Regular-61" d="M 3425 316 
L 3425 -88 
Q 3203 -147 3063 -147 
Q 2719 -147 2591 69 
Q 2528 178 2509 347 
Q 2225 84 1956 -31 
Q 1688 -147 1369 -147 
Q 856 -147 553 128 
Q 269 388 269 847 
Q 269 1497 863 1744 
Q 1013 1806 1189 1839 
Q 1366 1872 1934 1947 
Q 2253 1988 2372 2067 
Q 2491 2147 2491 2316 
L 2491 2456 
Q 2491 2956 1738 2956 
Q 1366 2956 1177 2812 
Q 988 2669 956 2363 
L 419 2363 
Q 438 2822 647 3056 
Q 1000 3450 1759 3450 
Q 2378 3450 2700 3217 
Q 3022 2984 3022 2531 
L 3022 566 
Q 3022 300 3309 300 
Q 3356 300 3425 316 
z
M 2491 1656 
Q 2350 1594 2217 1564 
Q 2084 1534 1631 1469 
Q 1216 1409 1028 1278 
Q 825 1131 825 856 
Q 825 603 1000 461 
Q 1175 319 1488 319 
Q 1953 319 2281 622 
Q 2397 731 2444 826 
Q 2491 922 2491 1056 
L 2491 1656 
z
" transform="scale(0.015625)"/>
      <path id="NimbusSans-Regular-69" d="M 956 3353 
L 956 0 
L 425 0 
L 425 3353 
L 956 3353 
z
M 959 4666 
L 959 3994 
L 422 3994 
L 422 4666 
L 959 4666 
z
" transform="scale(0.015625)"/>
      <path id="NimbusSans-Regular-76" d="M 1822 0 
L 1241 0 
L 63 3353 
L 666 3353 
L 1559 638 
L 2509 3353 
L 3109 3353 
L 1822 0 
z
" transform="scale(0.015625)"/>
      <path id="NimbusSans-Regular-73" d="M 2806 2419 
L 2244 2419 
Q 2231 2678 2081 2800 
Q 1894 2956 1572 2956 
Q 1272 2956 1072 2838 
Q 856 2709 856 2453 
Q 856 2244 1028 2138 
Q 1203 2034 1478 1969 
L 1991 1847 
Q 2459 1738 2669 1553 
Q 2938 1316 2938 916 
Q 2938 416 2534 119 
Q 2172 -150 1556 -150 
Q 259 -150 219 997 
L 781 997 
Q 825 691 938 569 
Q 1147 344 1600 344 
Q 1916 344 2131 466 
Q 2381 606 2381 872 
Q 2381 1053 2261 1162 
Q 2141 1272 1866 1338 
L 1366 1459 
Q 788 1600 559 1791 
Q 300 2009 300 2425 
Q 300 2909 669 3184 
Q 1031 3450 1588 3450 
Q 2169 3450 2484 3183 
Q 2800 2916 2806 2419 
z
" transform="scale(0.015625)"/>
     </defs>
     <use xlink:href="#NimbusSans-Regular-31"/>
     <use xlink:href="#NimbusSans-Regular-34" transform="translate(55.615234 0)"/>
     <use xlink:href="#NimbusSans-Regular-30" transform="translate(111.230469 0)"/>
     <use xlink:href="#NimbusSans-Regular-30" transform="translate(166.845703 0)"/>
     <use xlink:href="#NimbusSans-Regular-20" transform="translate(222.460938 0)"/>
     <use xlink:href="#NimbusSans-Regular-74" transform="translate(250.244141 0)"/>
     <use xlink:href="#NimbusSans-Regular-72" transform="translate(277.527344 0)"/>
     <use xlink:href="#NimbusSans-Regular-61" transform="translate(310.328125 0)"/>
     <use xlink:href="#NimbusSans-Regular-69" transform="translate(365.943359 0)"/>
     <use xlink:href="#NimbusSans-Regular-6e" transform="translate(388.160156 0)"/>
     <use xlink:href="#NimbusSans-Regular-20" transform="translate(443.775391 0)"/>
     <use xlink:href="#NimbusSans-Regular-65" transform="translate(471.558594 0)"/>
     <use xlink:href="#NimbusSans-Regular-76" transform="translate(525.673828 0)"/>
     <use xlink:href="#NimbusSans-Regular-65" transform="translate(573.673828 0)"/>
     <use xlink:href="#NimbusSans-Regular-6e" transform="translate(629.289062 0)"/>
     <use xlink:href="#NimbusSans-Regular-74" transform="translate(684.904297 0)"/>
     <use xlink:href="#NimbusSans-Regular-73" transform="translate(712.4375 0)"/>
    </g>
   </g>
   <g id="text_18">
    <!-- Target: $p_T &gt; 1$ GeV, $ | \eta | &lt; 4$ -->
    <g transform="translate(58.408905 46.2) scale(0.12 -0.12)">
     <defs>
      <path id="NimbusSans-Regular-54" d="M 2266 4141 
L 2266 0 
L 1672 0 
L 1672 4141 
L 134 4141 
L 134 4666 
L 3794 4666 
L 3794 4141 
L 2266 4141 
z
" transform="scale(0.015625)"/>
      <path id="NimbusSans-Regular-3a" d="M 1369 666 
L 1369 0 
L 703 0 
L 703 666 
L 1369 666 
z
M 1369 3353 
L 1369 2688 
L 703 2688 
L 703 3353 
L 1369 3353 
z
" transform="scale(0.015625)"/>
      <path id="DejaVuSans-Oblique-70" d="M 3175 2156 
Q 3175 2616 2975 2859 
Q 2775 3103 2400 3103 
Q 2144 3103 1911 2972 
Q 1678 2841 1497 2591 
Q 1319 2344 1212 1994 
Q 1106 1644 1106 1300 
Q 1106 863 1306 627 
Q 1506 391 1875 391 
Q 2147 391 2380 519 
Q 2613 647 2778 891 
Q 2956 1147 3065 1494 
Q 3175 1841 3175 2156 
z
M 1394 2969 
Q 1625 3272 1939 3428 
Q 2253 3584 2638 3584 
Q 3175 3584 3472 3232 
Q 3769 2881 3769 2247 
Q 3769 1728 3584 1258 
Q 3400 788 3053 416 
Q 2822 169 2531 39 
Q 2241 -91 1919 -91 
Q 1547 -91 1294 64 
Q 1041 219 916 525 
L 556 -1331 
L -19 -1331 
L 922 3500 
L 1497 3500 
L 1394 2969 
z
" transform="scale(0.015625)"/>
      <path id="DejaVuSans-Oblique-54" d="M 378 4666 
L 4325 4666 
L 4225 4134 
L 2559 4134 
L 1759 0 
L 1125 0 
L 1925 4134 
L 275 4134 
L 378 4666 
z
" transform="scale(0.015625)"/>
      <path id="DejaVuSans-3e" d="M 678 3150 
L 678 3719 
L 4684 2266 
L 4684 1747 
L 678 294 
L 678 863 
L 3897 2003 
L 678 3150 
z
" transform="scale(0.015625)"/>
      <path id="DejaVuSans-31" d="M 794 531 
L 1825 531 
L 1825 4091 
L 703 3866 
L 703 4441 
L 1819 4666 
L 2450 4666 
L 2450 531 
L 3481 531 
L 3481 0 
L 794 0 
L 794 531 
z
" transform="scale(0.015625)"/>
      <path id="NimbusSans-Regular-47" d="M 4538 2463 
L 4538 -25 
L 4163 -25 
L 4013 594 
Q 3344 -147 2419 -147 
Q 1547 -147 963 434 
Q 616 781 444 1284 
Q 281 1766 281 2288 
Q 281 3172 697 3809 
Q 1303 4744 2522 4744 
Q 3531 4744 4078 4119 
Q 4381 3769 4475 3250 
L 3866 3250 
Q 3781 3641 3500 3884 
Q 3116 4219 2513 4219 
Q 1828 4219 1394 3775 
Q 1153 3528 1025 3175 
Q 875 2769 875 2319 
Q 875 1703 1122 1209 
Q 1356 744 1797 538 
Q 2138 378 2544 378 
Q 3200 378 3606 794 
Q 4013 1206 4013 1813 
L 4013 1938 
L 2591 1938 
L 2591 2463 
L 4538 2463 
z
" transform="scale(0.015625)"/>
      <path id="NimbusSans-Regular-56" d="M 2509 0 
L 1866 0 
L 191 4666 
L 831 4666 
L 2203 713 
L 3494 4666 
L 4128 4666 
L 2509 0 
z
" transform="scale(0.015625)"/>
      <path id="NimbusSans-Regular-2c" d="M 556 666 
L 1228 666 
L 1228 -100 
Q 1228 -938 556 -944 
L 556 -700 
Q 703 -694 778 -647 
Q 853 -600 894 -484 
Q 938 -369 938 0 
L 556 0 
L 556 666 
z
" transform="scale(0.015625)"/>
      <path id="DejaVuSans-7c" d="M 1344 4891 
L 1344 -1509 
L 813 -1509 
L 813 4891 
L 1344 4891 
z
" transform="scale(0.015625)"/>
      <path id="DejaVuSans-Oblique-3b7" d="M 3703 2113 
L 3034 -1331 
L 2459 -1331 
L 3125 2094 
Q 3222 2591 3075 2838 
Q 2931 3084 2544 3084 
Q 2078 3084 1750 2788 
Q 1425 2491 1325 1978 
L 941 0 
L 363 0 
L 1044 3500 
L 1622 3500 
L 1516 2956 
Q 1781 3272 2094 3428 
Q 2403 3584 2769 3584 
Q 3372 3584 3609 3213 
Q 3844 2838 3703 2113 
z
" transform="scale(0.015625)"/>
      <path id="DejaVuSans-3c" d="M 4684 3150 
L 1459 2003 
L 4684 863 
L 4684 294 
L 678 1747 
L 678 2266 
L 4684 3719 
L 4684 3150 
z
" transform="scale(0.015625)"/>
      <path id="DejaVuSans-34" d="M 2419 4116 
L 825 1625 
L 2419 1625 
L 2419 4116 
z
M 2253 4666 
L 3047 4666 
L 3047 1625 
L 3713 1625 
L 3713 1100 
L 3047 1100 
L 3047 0 
L 2419 0 
L 2419 1100 
L 313 1100 
L 313 1709 
L 2253 4666 
z
" transform="scale(0.015625)"/>
     </defs>
     <use xlink:href="#NimbusSans-Regular-54" transform="translate(0 0.578125)"/>
     <use xlink:href="#NimbusSans-Regular-61" transform="translate(61.083984 0.578125)"/>
     <use xlink:href="#NimbusSans-Regular-72" transform="translate(116.699219 0.578125)"/>
     <use xlink:href="#NimbusSans-Regular-67" transform="translate(150 0.578125)"/>
     <use xlink:href="#NimbusSans-Regular-65" transform="translate(205.615234 0.578125)"/>
     <use xlink:href="#NimbusSans-Regular-74" transform="translate(261.230469 0.578125)"/>
     <use xlink:href="#NimbusSans-Regular-3a" transform="translate(289.013672 0.578125)"/>
     <use xlink:href="#NimbusSans-Regular-20" transform="translate(316.796875 0.578125)"/>
     <use xlink:href="#DejaVuSans-Oblique-70" transform="translate(344.580078 0.578125)"/>
     <use xlink:href="#DejaVuSans-Oblique-54" transform="translate(408.056641 -15.828125) scale(0.7)"/>
     <use xlink:href="#DejaVuSans-3e" transform="translate(473.032227 0.578125)"/>
     <use xlink:href="#DejaVuSans-31" transform="translate(576.303711 0.578125)"/>
     <use xlink:href="#NimbusSans-Regular-20" transform="translate(639.926758 0.578125)"/>
     <use xlink:href="#NimbusSans-Regular-47" transform="translate(667.709961 0.578125)"/>
     <use xlink:href="#NimbusSans-Regular-65" transform="translate(745.493164 0.578125)"/>
     <use xlink:href="#NimbusSans-Regular-56" transform="translate(801.108398 0.578125)"/>
     <use xlink:href="#NimbusSans-Regular-2c" transform="translate(867.807617 0.578125)"/>
     <use xlink:href="#NimbusSans-Regular-20" transform="translate(895.59082 0.578125)"/>
     <use xlink:href="#DejaVuSans-7c" transform="translate(923.374023 0.578125)"/>
     <use xlink:href="#DejaVuSans-Oblique-3b7" transform="translate(957.06543 0.578125)"/>
     <use xlink:href="#DejaVuSans-7c" transform="translate(1020.444336 0.578125)"/>
     <use xlink:href="#DejaVuSans-3c" transform="translate(1073.618164 0.578125)"/>
     <use xlink:href="#DejaVuSans-34" transform="translate(1176.889648 0.578125)"/>
    </g>
   </g>
   <g id="text_19">
    <!-- Edge score cut: 0.5 -->
    <g transform="translate(58.408905 60.6) scale(0.12 -0.12)">
     <use xlink:href="#NimbusSans-Regular-45"/>
     <use xlink:href="#NimbusSans-Regular-64" transform="translate(64.699219 0)"/>
     <use xlink:href="#NimbusSans-Regular-67" transform="translate(120.689453 0)"/>
     <use xlink:href="#NimbusSans-Regular-65" transform="translate(175.804688 0)"/>
     <use xlink:href="#NimbusSans-Regular-20" transform="translate(231.419922 0)"/>
     <use xlink:href="#NimbusSans-Regular-73" transform="translate(259.203125 0)"/>
     <use xlink:href="#NimbusSans-Regular-63" transform="translate(309.203125 0)"/>
     <use xlink:href="#NimbusSans-Regular-6f" transform="translate(359.953125 0)"/>
     <use xlink:href="#NimbusSans-Regular-72" transform="translate(415.568359 0)"/>
     <use xlink:href="#NimbusSans-Regular-65" transform="translate(447.869141 0)"/>
     <use xlink:href="#NimbusSans-Regular-20" transform="translate(503.484375 0)"/>
     <use xlink:href="#NimbusSans-Regular-63" transform="translate(531.267578 0)"/>
     <use xlink:href="#NimbusSans-Regular-75" transform="translate(581.392578 0)"/>
     <use xlink:href="#NimbusSans-Regular-74" transform="translate(637.007812 0)"/>
     <use xlink:href="#NimbusSans-Regular-3a" transform="translate(664.291016 0)"/>
     <use xlink:href="#NimbusSans-Regular-20" transform="translate(692.074219 0)"/>
     <use xlink:href="#NimbusSans-Regular-30" transform="translate(719.857422 0)"/>
     <use xlink:href="#NimbusSans-Regular-2e" transform="translate(775.472656 0)"/>
     <use xlink:href="#NimbusSans-Regular-35" transform="translate(803.255859 0)"/>
    </g>
   </g>
   <g id="text_20">
    <!-- Evaluated on 50 events in valset -->
    <g transform="translate(58.408905 75) scale(0.12 -0.12)">
     <defs>
      <path id="NimbusSans-Regular-6c" d="M 972 4666 
L 972 0 
L 434 0 
L 434 4666 
L 972 4666 
z
" transform="scale(0.015625)"/>
     </defs>
     <use xlink:href="#NimbusSans-Regular-45"/>
     <use xlink:href="#NimbusSans-Regular-76" transform="translate(63.824219 0)"/>
     <use xlink:href="#NimbusSans-Regular-61" transform="translate(111.949219 0)"/>
     <use xlink:href="#NimbusSans-Regular-6c" transform="translate(167.564453 0)"/>
     <use xlink:href="#NimbusSans-Regular-75" transform="translate(189.78125 0)"/>
     <use xlink:href="#NimbusSans-Regular-61" transform="translate(245.396484 0)"/>
     <use xlink:href="#NimbusSans-Regular-74" transform="translate(299.761719 0)"/>
     <use xlink:href="#NimbusSans-Regular-65" transform="translate(326.169922 0)"/>
     <use xlink:href="#NimbusSans-Regular-64" transform="translate(381.785156 0)"/>
     <use xlink:href="#NimbusSans-Regular-20" transform="translate(437.400391 0)"/>
     <use xlink:href="#NimbusSans-Regular-6f" transform="translate(465.183594 0)"/>
     <use xlink:href="#NimbusSans-Regular-6e" transform="translate(520.798828 0)"/>
     <use xlink:href="#NimbusSans-Regular-20" transform="translate(576.414062 0)"/>
     <use xlink:href="#NimbusSans-Regular-35" transform="translate(604.197266 0)"/>
     <use xlink:href="#NimbusSans-Regular-30" transform="translate(659.8125 0)"/>
     <use xlink:href="#NimbusSans-Regular-20" transform="translate(715.427734 0)"/>
     <use xlink:href="#NimbusSans-Regular-65" transform="translate(743.210938 0)"/>
     <use xlink:href="#NimbusSans-Regular-76" transform="translate(797.326172 0)"/>
     <use xlink:href="#NimbusSans-Regular-65" transform="translate(845.326172 0)"/>
     <use xlink:href="#NimbusSans-Regular-6e" transform="translate(900.941406 0)"/>
     <use xlink:href="#NimbusSans-Regular-74" transform="translate(956.556641 0)"/>
     <use xlink:href="#NimbusSans-Regular-73" transform="translate(984.089844 0)"/>
     <use xlink:href="#NimbusSans-Regular-20" transform="translate(1034.089844 0)"/>
     <use xlink:href="#NimbusSans-Regular-69" transform="translate(1061.873047 0)"/>
     <use xlink:href="#NimbusSans-Regular-6e" transform="translate(1084.089844 0)"/>
     <use xlink:href="#NimbusSans-Regular-20" transform="translate(1139.705078 0)"/>
     <use xlink:href="#NimbusSans-Regular-76" transform="translate(1167.488281 0)"/>
     <use xlink:href="#NimbusSans-Regular-61" transform="translate(1215.613281 0)"/>
     <use xlink:href="#NimbusSans-Regular-6c" transform="translate(1271.228516 0)"/>
     <use xlink:href="#NimbusSans-Regular-73" transform="translate(1293.445312 0)"/>
     <use xlink:href="#NimbusSans-Regular-65" transform="translate(1343.445312 0)"/>
     <use xlink:href="#NimbusSans-Regular-74" transform="translate(1397.935547 0)"/>
    </g>
   </g>
   <g id="legend_1">
    <g id="patch_10">
     <path d="M 288.441562 33.606875 
L 316.441562 33.606875 
L 316.441562 23.806875 
L 288.441562 23.806875 
L 288.441562 33.606875 
z
" style="fill: none; stroke: #1f77b4; stroke-width: 2; stroke-linejoin: miter"/>
    </g>
    <g id="text_21">
     <!-- Target Edges - 601576 edges -->
     <g transform="translate(327.641562 33.606875) scale(0.14 -0.14)">
      <defs>
       <path id="NimbusSans-Regular-2d" d="M 1816 1997 
L 1816 1538 
L 294 1538 
L 294 1997 
L 1816 1997 
z
" transform="scale(0.015625)"/>
      </defs>
      <use xlink:href="#NimbusSans-Regular-54"/>
      <use xlink:href="#NimbusSans-Regular-61" transform="translate(51.083984 0)"/>
      <use xlink:href="#NimbusSans-Regular-72" transform="translate(106.699219 0)"/>
      <use xlink:href="#NimbusSans-Regular-67" transform="translate(139.625 0)"/>
      <use xlink:href="#NimbusSans-Regular-65" transform="translate(194.740234 0)"/>
      <use xlink:href="#NimbusSans-Regular-74" transform="translate(249.230469 0)"/>
      <use xlink:href="#NimbusSans-Regular-20" transform="translate(277.013672 0)"/>
      <use xlink:href="#NimbusSans-Regular-45" transform="translate(304.796875 0)"/>
      <use xlink:href="#NimbusSans-Regular-64" transform="translate(369.496094 0)"/>
      <use xlink:href="#NimbusSans-Regular-67" transform="translate(425.486328 0)"/>
      <use xlink:href="#NimbusSans-Regular-65" transform="translate(480.601562 0)"/>
      <use xlink:href="#NimbusSans-Regular-73" transform="translate(535.841797 0)"/>
      <use xlink:href="#NimbusSans-Regular-20" transform="translate(585.841797 0)"/>
      <use xlink:href="#NimbusSans-Regular-2d" transform="translate(613.625 0)"/>
      <use xlink:href="#NimbusSans-Regular-20" transform="translate(646.925781 0)"/>
      <use xlink:href="#NimbusSans-Regular-36" transform="translate(674.708984 0)"/>
      <use xlink:href="#NimbusSans-Regular-30" transform="translate(730.324219 0)"/>
      <use xlink:href="#NimbusSans-Regular-31" transform="translate(785.939453 0)"/>
      <use xlink:href="#NimbusSans-Regular-35" transform="translate(841.554688 0)"/>
      <use xlink:href="#NimbusSans-Regular-37" transform="translate(897.169922 0)"/>
      <use xlink:href="#NimbusSans-Regular-36" transform="translate(952.785156 0)"/>
      <use xlink:href="#NimbusSans-Regular-20" transform="translate(1008.400391 0)"/>
      <use xlink:href="#NimbusSans-Regular-65" transform="translate(1036.183594 0)"/>
      <use xlink:href="#NimbusSans-Regular-64" transform="translate(1091.798828 0)"/>
      <use xlink:href="#NimbusSans-Regular-67" transform="translate(1147.789062 0)"/>
      <use xlink:href="#NimbusSans-Regular-65" transform="translate(1202.904297 0)"/>
      <use xlink:href="#NimbusSans-Regular-73" transform="translate(1258.144531 0)"/>
     </g>
    </g>
    <g id="patch_11">
     <path d="M 288.441562 53.863125 
L 316.441562 53.863125 
L 316.441562 44.063125 
L 288.441562 44.063125 
L 288.441562 53.863125 
z
" style="fill: none; stroke: #2ca02c; stroke-width: 2; stroke-linejoin: miter"/>
    </g>
    <g id="text_22">
     <!-- Non-target Edges - 2270083 edges -->
     <g transform="translate(327.641562 53.863125) scale(0.14 -0.14)">
      <defs>
       <path id="NimbusSans-Regular-4e" d="M 4134 4666 
L 4134 0 
L 3466 0 
L 1050 3784 
L 1050 0 
L 488 0 
L 488 4666 
L 1134 4666 
L 3572 853 
L 3572 4666 
L 4134 4666 
z
" transform="scale(0.015625)"/>
      </defs>
      <use xlink:href="#NimbusSans-Regular-4e"/>
      <use xlink:href="#NimbusSans-Regular-6f" transform="translate(72.466797 0)"/>
      <use xlink:href="#NimbusSans-Regular-6e" transform="translate(128.082031 0)"/>
      <use xlink:href="#NimbusSans-Regular-2d" transform="translate(183.697266 0)"/>
      <use xlink:href="#NimbusSans-Regular-74" transform="translate(216.498047 0)"/>
      <use xlink:href="#NimbusSans-Regular-61" transform="translate(244.15625 0)"/>
      <use xlink:href="#NimbusSans-Regular-72" transform="translate(299.771484 0)"/>
      <use xlink:href="#NimbusSans-Regular-67" transform="translate(332.697266 0)"/>
      <use xlink:href="#NimbusSans-Regular-65" transform="translate(387.8125 0)"/>
      <use xlink:href="#NimbusSans-Regular-74" transform="translate(442.302734 0)"/>
      <use xlink:href="#NimbusSans-Regular-20" transform="translate(470.085938 0)"/>
      <use xlink:href="#NimbusSans-Regular-45" transform="translate(497.869141 0)"/>
      <use xlink:href="#NimbusSans-Regular-64" transform="translate(562.568359 0)"/>
      <use xlink:href="#NimbusSans-Regular-67" transform="translate(618.558594 0)"/>
      <use xlink:href="#NimbusSans-Regular-65" transform="translate(673.673828 0)"/>
      <use xlink:href="#NimbusSans-Regular-73" transform="translate(728.914062 0)"/>
      <use xlink:href="#NimbusSans-Regular-20" transform="translate(778.914062 0)"/>
      <use xlink:href="#NimbusSans-Regular-2d" transform="translate(806.697266 0)"/>
      <use xlink:href="#NimbusSans-Regular-20" transform="translate(839.998047 0)"/>
      <use xlink:href="#NimbusSans-Regular-32" transform="translate(867.78125 0)"/>
      <use xlink:href="#NimbusSans-Regular-32" transform="translate(923.396484 0)"/>
      <use xlink:href="#NimbusSans-Regular-37" transform="translate(979.011719 0)"/>
      <use xlink:href="#NimbusSans-Regular-30" transform="translate(1034.626953 0)"/>
      <use xlink:href="#NimbusSans-Regular-30" transform="translate(1090.242188 0)"/>
      <use xlink:href="#NimbusSans-Regular-38" transform="translate(1145.857422 0)"/>
      <use xlink:href="#NimbusSans-Regular-33" transform="translate(1201.472656 0)"/>
      <use xlink:href="#NimbusSans-Regular-20" transform="translate(1257.087891 0)"/>
      <use xlink:href="#NimbusSans-Regular-65" transform="translate(1284.871094 0)"/>
      <use xlink:href="#NimbusSans-Regular-64" transform="translate(1340.486328 0)"/>
      <use xlink:href="#NimbusSans-Regular-67" transform="translate(1396.476562 0)"/>
      <use xlink:href="#NimbusSans-Regular-65" transform="translate(1451.591797 0)"/>
      <use xlink:href="#NimbusSans-Regular-73" transform="translate(1506.832031 0)"/>
     </g>
    </g>
    <g id="patch_12">
     <path d="M 288.441562 74.119375 
L 316.441562 74.119375 
L 316.441562 64.319375 
L 288.441562 64.319375 
L 288.441562 74.119375 
z
" style="fill: none; stroke: #ff7f0e; stroke-width: 2; stroke-linejoin: miter"/>
    </g>
    <g id="text_23">
     <!-- False Edges - 7516801 edges -->
     <g transform="translate(327.641562 74.119375) scale(0.14 -0.14)">
      <defs>
       <path id="NimbusSans-Regular-46" d="M 1169 2125 
L 1169 0 
L 575 0 
L 575 4666 
L 3703 4666 
L 3703 4141 
L 1169 4141 
L 1169 2650 
L 3397 2650 
L 3397 2125 
L 1169 2125 
z
" transform="scale(0.015625)"/>
      </defs>
      <use xlink:href="#NimbusSans-Regular-46"/>
      <use xlink:href="#NimbusSans-Regular-61" transform="translate(57.708984 0)"/>
      <use xlink:href="#NimbusSans-Regular-6c" transform="translate(113.324219 0)"/>
      <use xlink:href="#NimbusSans-Regular-73" transform="translate(135.541016 0)"/>
      <use xlink:href="#NimbusSans-Regular-65" transform="translate(185.541016 0)"/>
      <use xlink:href="#NimbusSans-Regular-20" transform="translate(241.15625 0)"/>
      <use xlink:href="#NimbusSans-Regular-45" transform="translate(268.939453 0)"/>
      <use xlink:href="#NimbusSans-Regular-64" transform="translate(333.638672 0)"/>
      <use xlink:href="#NimbusSans-Regular-67" transform="translate(389.628906 0)"/>
      <use xlink:href="#NimbusSans-Regular-65" transform="translate(444.744141 0)"/>
      <use xlink:href="#NimbusSans-Regular-73" transform="translate(499.984375 0)"/>
      <use xlink:href="#NimbusSans-Regular-20" transform="translate(549.984375 0)"/>
      <use xlink:href="#NimbusSans-Regular-2d" transform="translate(577.767578 0)"/>
      <use xlink:href="#NimbusSans-Regular-20" transform="translate(611.068359 0)"/>
      <use xlink:href="#NimbusSans-Regular-37" transform="translate(638.851562 0)"/>
      <use xlink:href="#NimbusSans-Regular-35" transform="translate(694.466797 0)"/>
      <use xlink:href="#NimbusSans-Regular-31" transform="translate(750.082031 0)"/>
      <use xlink:href="#NimbusSans-Regular-36" transform="translate(805.697266 0)"/>
      <use xlink:href="#NimbusSans-Regular-38" transform="translate(861.3125 0)"/>
      <use xlink:href="#NimbusSans-Regular-30" transform="translate(916.927734 0)"/>
      <use xlink:href="#NimbusSans-Regular-31" transform="translate(972.542969 0)"/>
      <use xlink:href="#NimbusSans-Regular-20" transform="translate(1028.158203 0)"/>
      <use xlink:href="#NimbusSans-Regular-65" transform="translate(1055.941406 0)"/>
      <use xlink:href="#NimbusSans-Regular-64" transform="translate(1111.556641 0)"/>
      <use xlink:href="#NimbusSans-Regular-67" transform="translate(1167.546875 0)"/>
      <use xlink:href="#NimbusSans-Regular-65" transform="translate(1222.662109 0)"/>
      <use xlink:href="#NimbusSans-Regular-73" transform="translate(1277.902344 0)"/>
     </g>
    </g>
   </g>
  </g>
 </g>
 <defs>
  <clipPath id="p40666a9ccd">
   <rect x="48.408905" y="10.8" width="509.771095" height="379.14"/>
  </clipPath>
 </defs>
</svg>
